<?xml version="1.0" encoding="UTF-8"?>
<!DOCTYPE svg PUBLIC "-//W3C//DTD SVG 1.1//EN" "http://www.w3.org/Graphics/SVG/1.1/DTD/svg11.dtd">
<svg version="1.1" xmlns="http://www.w3.org/2000/svg" xmlns:xlink="http://www.w3.org/1999/xlink" x="0" y="0" width="1000" height="1000" viewBox="0, 0, 1000, 1000">
  <g id="Background">
    <rect x="0" y="0" width="1000" height="1000" fill="#FFFFFF"/>
  </g>
  <defs>
    <radialGradient id="Gradient_1" gradientUnits="userSpaceOnUse" cx="198.219" cy="789.384" r="112.679">
      <stop offset="0" stop-color="#0A9A16"/>
      <stop offset="1" stop-color="#076E10"/>
    </radialGradient>
    <radialGradient id="Gradient_2" gradientUnits="userSpaceOnUse" cx="198.219" cy="789.471" r="97">
      <stop offset="0" stop-color="#000000" stop-opacity="0"/>
      <stop offset="1" stop-color="#000000" stop-opacity="0.418"/>
    </radialGradient>
  </defs>
  <g id="layer1">
    <path d="M168.7,279.378 C167.325,279.138 162.825,278.443 158.7,277.833 C144.201,275.689 126.414,268.572 113.277,259.658 C105.422,254.328 92.748,242.126 86.626,233.999 C76.798,220.954 68.605,201.825 65.616,184.948 C63.912,175.327 63.912,156.57 65.616,146.948 C68.354,131.486 75.284,114.356 83.99,101.526 C89.32,93.67 101.522,80.996 109.649,74.875 C122.694,65.047 141.823,56.854 158.7,53.864 C168.321,52.16 187.078,52.16 196.7,53.864 C232.308,60.171 263.087,82.923 279.125,114.794 C287.156,130.755 291.112,147.635 291.112,165.948 C291.112,179.295 289.605,188.916 285.577,201.291 C276.296,229.8 255.641,253.894 228.982,267.309 C220.025,271.816 208.708,275.661 198.835,277.549 C191.005,279.048 173.056,280.136 168.7,279.378 z M192.2,264.905 C259.357,255.273 297.751,181.013 266.769,120.676 C233.05,55.007 142.297,46.9 98.112,105.609 C60.515,155.562 76.797,226.453 132.427,255.018 C150.474,264.284 171.861,267.822 192.2,264.905 z M162.7,251.302 C132.615,245.404 108.063,224.936 96.508,196.119 C93.563,188.773 90.426,175.201 91.334,173.732 C91.6,173.301 98.268,172.948 106.152,172.948 C122.071,172.948 121.7,173.115 121.7,165.948 C121.7,159.395 121.214,158.948 114.093,158.948 C110.577,158.948 107.7,158.522 107.7,158.002 C107.7,157.481 109.341,154.255 111.348,150.831 L114.996,144.607 L112.833,142.856 L110.671,141.105 L114.185,135.108 C117.914,128.747 118.479,126.392 116.45,125.671 C115.571,125.359 116.206,123.331 118.588,118.838 C123.971,108.688 123.837,108.706 128.639,117.455 C132.562,124.603 132.727,125.208 131.081,126.411 C129.437,127.613 129.599,128.173 133.434,134.575 C137.311,141.046 137.44,141.501 135.626,142.351 C133.008,143.578 133.189,144.995 136.733,151.006 C138.402,153.835 139.865,156.668 139.983,157.3 C140.121,158.029 137.829,158.631 133.7,158.948 L127.2,159.448 L127.2,165.948 L127.2,172.448 L149.7,172.448 L172.2,172.448 L172.2,167.948 L172.2,163.448 L160.95,163.166 C154.762,163.01 149.718,162.56 149.74,162.166 C149.761,161.771 152.411,156.74 155.627,150.986 C158.843,145.232 161.252,139.944 160.98,139.236 C160.708,138.528 158.959,137.948 157.093,137.948 C155.227,137.948 153.7,137.439 153.7,136.817 C153.7,136.195 156.88,130.126 160.767,123.331 C164.654,116.535 167.552,110.519 167.208,109.962 C166.863,109.404 165.483,108.948 164.141,108.948 C162.798,108.948 161.7,108.489 161.7,107.927 C161.7,106.605 176.944,79.948 177.7,79.948 C178.455,79.948 193.7,106.605 193.7,107.927 C193.7,108.489 192.575,108.948 191.2,108.948 C187.286,108.948 188.017,111.574 195.605,124.784 C199.403,131.395 202.253,137.062 201.938,137.376 C201.624,137.691 199.866,137.948 198.033,137.948 C193.314,137.948 193.633,140.001 200.2,151.861 C203.225,157.324 205.7,162.04 205.7,162.339 C205.7,162.638 200.637,163.01 194.45,163.166 L183.2,163.448 L183.2,167.948 L183.2,172.448 L205.7,172.448 L228.2,172.448 L228.2,165.948 L228.2,159.448 L221.7,158.948 C214.325,158.381 214.285,158.278 218.689,151.121 C222.245,145.34 222.454,143.379 219.589,142.63 C217.529,142.091 217.557,141.939 220.772,136.263 C222.583,133.065 224.537,129.668 225.113,128.715 C225.901,127.41 225.76,126.58 224.541,125.361 C223.047,123.867 223.232,123.201 226.899,116.84 C229.087,113.045 231.229,110.158 231.659,110.423 C232.732,111.086 239.7,122.869 239.7,124.02 C239.7,124.531 239.25,124.948 238.7,124.948 C236.814,124.948 237.703,128.263 241.331,134.749 L244.962,141.242 L242.698,142.95 L240.434,144.658 L244.067,150.857 C246.065,154.266 247.7,157.46 247.7,157.954 C247.7,158.449 244.887,158.987 241.45,159.151 L235.2,159.448 L235.2,165.948 L235.2,172.448 L249.179,172.728 C256.868,172.882 263.478,173.332 263.867,173.728 C265.019,174.9 262.06,188.216 258.891,196.119 C248.587,221.815 228.382,240.638 202.2,248.931 C196.56,250.717 192.285,251.211 180.2,251.47 C171.95,251.647 164.075,251.571 162.7,251.302 z" fill="#669941"/>
    <g>
      <path d="M487.681,280.817 C442.985,275.898 404.541,244.362 390.691,201.255 C386.642,188.652 385.431,180.513 385.431,165.909 C385.431,151.305 386.642,143.167 390.691,130.563 C403.772,89.85 439.39,58.93 481.413,51.806 C490.119,50.33 511.243,50.33 519.949,51.806 C561.972,58.93 597.59,89.85 610.671,130.563 C614.72,143.167 615.931,151.305 615.931,165.909 C615.931,180.096 614.761,188.344 611.068,200.178 C594.614,252.904 542.647,286.866 487.681,280.817 z" fill="#FCC65E"/>
      <path d="M486.201,279.496 C438.231,272.426 401.17,239.104 389.523,192.573 C387.623,184.982 387.277,180.91 387.277,166.102 C387.277,151.295 387.623,147.222 389.523,139.632 C400.26,96.732 433.046,64.519 476.201,54.466 C488.324,51.642 514.954,51.885 527.171,54.932 C570.028,65.621 602.288,98.451 612.336,141.602 C614.965,152.891 614.965,179.313 612.336,190.602 C602.339,233.534 569.931,266.66 527.692,277.12 C519.403,279.173 493.911,280.632 486.201,279.496 z M524.712,261.761 C542.65,257.192 557.09,248.947 570.317,235.719 C583.451,222.585 591.619,208.34 596.467,190.114 C598.619,182.02 598.996,178.441 598.996,166.102 C598.996,153.764 598.619,150.184 596.467,142.091 C591.619,123.865 583.451,109.619 570.317,96.485 C557.184,83.352 542.938,75.184 524.712,70.336 C516.618,68.184 513.039,67.807 500.701,67.807 C488.362,67.807 484.783,68.184 476.689,70.336 C458.463,75.184 444.217,83.352 431.084,96.485 C417.95,109.619 409.782,123.865 404.935,142.091 C402.782,150.184 402.405,153.764 402.405,166.102 C402.405,178.441 402.782,182.02 404.935,190.114 C409.782,208.34 417.95,222.585 431.084,235.719 C446.619,251.254 465.076,260.563 487.285,264.066 C496.766,265.561 513.948,264.503 524.712,261.761 z M453.294,237.933 C450.734,234.277 451.371,231.932 457.201,223.557 C460.226,219.211 462.701,215.251 462.701,214.756 C462.701,214.262 460.026,210.997 456.756,207.502 C453.487,204.007 449.584,199.054 448.085,196.494 C435.324,174.719 437.566,146.913 453.629,127.743 C460.5,119.543 458.041,118.617 448.146,125.679 C444.619,128.196 440.951,130.105 439.996,129.921 C436.501,129.247 434.501,115.937 436.854,109.001 C437.488,107.132 438.838,104.408 439.854,102.948 C440.869,101.488 441.701,99.498 441.701,98.527 C441.701,95.469 444.625,93.137 447.691,93.75 C449.212,94.054 451.466,93.763 452.7,93.103 C455.784,91.452 465.551,91.594 469.743,93.351 C474.483,95.336 479.701,99.904 479.701,102.066 C479.701,103.162 476.8,105.858 472.201,109.037 C468.076,111.889 464.701,114.683 464.701,115.245 C464.701,115.808 465.038,116.119 465.451,115.936 C465.863,115.752 469.126,114.176 472.701,112.433 C481.667,108.062 490.025,106.102 499.701,106.102 C509.654,106.102 517.94,108.092 527.03,112.666 C534.777,116.564 534.709,116.544 534.677,114.852 C534.664,114.165 531.739,111.616 528.177,109.188 C524.615,106.761 521.701,104.206 521.701,103.511 C521.701,101.323 528.984,96.123 534.479,94.387 C538.997,92.959 540.51,92.898 544.979,93.96 C547.851,94.643 551.101,95.219 552.201,95.24 C557.021,95.333 558.454,96.118 559.025,98.974 C559.344,100.568 560.739,103.544 562.126,105.588 C565.165,110.065 566.16,114.737 565.343,120.695 C564.659,125.684 562.189,131.102 560.599,131.102 C560.022,131.102 556.24,128.792 552.196,125.968 C547.328,122.57 544.271,121.053 543.154,121.482 C541.662,122.054 541.775,122.507 544.117,125.366 C553.719,137.083 558.644,148.748 559.456,161.69 C560.51,178.511 554.878,194.495 543.678,206.467 C540.391,209.982 537.701,213.13 537.701,213.465 C537.701,213.799 540.176,217.275 543.201,221.19 C549.553,229.412 550.202,232.776 546.066,236.03 C541.18,239.873 538.892,238.566 528.201,225.83 L524.201,221.065 L517.701,223.15 C507.36,226.467 495.96,226.803 485.214,224.108 L476.228,221.854 L474.498,224.228 C463.087,239.89 463.386,239.586 459.029,239.905 C455.656,240.152 454.593,239.786 453.294,237.933 z M506.701,213.057 C526.042,209.993 541.197,196.011 546.17,176.642 C552.864,150.574 534.087,123.069 506.701,118.831 C475.465,113.996 447.779,141.82 452.642,173.16 C456.111,195.52 474.988,212.249 498.701,213.978 C499.526,214.038 503.126,213.624 506.701,213.057 z M496.367,172.436 C496.001,172.069 495.701,162.667 495.701,151.543 C495.701,133.786 495.899,131.24 497.327,130.692 C501.057,129.261 501.644,131.653 501.927,149.455 L502.201,166.602 L511.857,166.887 C522.233,167.194 525.265,168.512 522.701,171.602 C521.718,172.786 518.879,173.102 509.245,173.102 C502.529,173.102 496.734,172.802 496.367,172.436 z" fill="#EE6427"/>
    </g>
    <g>
      <path d="M804.128,279.534 C788.826,276.948 771.994,270.114 758.36,260.951 C750.344,255.563 734.154,239.373 728.767,231.357 C701.948,191.453 701.948,140.725 728.767,100.821 C734.154,92.805 750.344,76.615 758.36,71.228 C798.264,44.409 848.992,44.409 888.896,71.228 C896.913,76.615 913.102,92.805 918.49,100.821 C920.793,104.248 924.458,110.619 926.633,114.979 C945.146,152.079 942.052,196.299 918.49,231.357 C913.102,239.373 896.913,255.563 888.896,260.951 C864,277.683 833.173,284.441 804.128,279.534 z" fill="#CFDA2B"/>
      <path d="M804.128,279.534 C788.826,276.948 771.994,270.114 758.36,260.951 C750.344,255.563 734.154,239.373 728.767,231.357 C701.948,191.453 701.948,140.725 728.767,100.821 C734.154,92.805 750.344,76.615 758.36,71.228 C798.264,44.409 848.992,44.409 888.896,71.228 C896.913,76.615 913.102,92.805 918.49,100.821 C920.793,104.248 924.458,110.619 926.633,114.979 C945.146,152.079 942.052,196.299 918.49,231.357 C913.102,239.373 896.913,255.563 888.896,260.951 C864,277.683 833.173,284.441 804.128,279.534 z M835.306,264.035 C864.831,260.057 889.839,244.592 905.959,220.343 C918.357,201.695 924.336,177.473 921.76,156.339 C918.955,133.329 910.661,114.994 895.74,98.822 C884.813,86.979 867.1,75.897 852.344,71.67 C845.828,69.804 844.628,70.123 844.628,73.725 C844.628,77.585 839.563,82.089 835.221,82.089 C829.722,82.089 825.276,77.631 825.134,71.976 C825,66.646 824.592,66.516 812.815,68.049 C771.888,73.375 739.455,100.847 728.726,139.277 C723.766,157.042 723.766,175.136 728.726,192.901 C741.664,239.243 788.299,270.368 835.306,264.035 z M813.628,244.522 C794.96,240.48 780.609,226.765 775.108,207.71 C772.743,199.515 773.444,183.804 776.531,175.859 C779.315,168.693 787.789,157.842 794.704,152.589 C809.068,141.679 811.364,137.845 806.066,133.621 C803.012,131.186 803.587,128.389 807.333,127.448 C811.518,126.398 822.501,128.806 830.2,132.463 C857.232,145.3 872.11,165.536 873.4,191.221 C873.984,202.841 872.706,209.039 867.756,218.588 C860.817,231.974 848.283,241.382 833.128,244.578 C824.689,246.358 822.069,246.35 813.628,244.522 z M837.988,228.782 C845.129,225.513 850.768,220.264 854.216,213.678 C856.611,209.104 856.837,208.046 855.711,206.689 C853.5,204.025 851.757,204.849 848.539,210.08 C842.083,220.572 832.071,225.86 820.628,224.823 C811.468,223.992 804.562,219.213 797.331,208.701 C793.556,203.212 789.034,207.106 792.161,213.153 C794.39,217.462 801.099,224.599 805.45,227.288 C814.181,232.684 828.072,233.322 837.988,228.782 z M801.674,186.534 C804.542,183.078 806.545,182.841 809.793,185.574 C814.917,189.886 817.414,187.364 813.098,182.235 C810.39,179.017 810.471,178.207 813.882,174.413 C815.819,172.258 815.565,170.089 813.374,170.089 C812.749,170.089 811,171.275 809.488,172.724 L806.737,175.359 L803.606,172.724 C797.839,167.871 795.41,170.3 800.263,176.067 L802.898,179.198 L800.133,182.084 C798.465,183.825 797.606,185.588 797.967,186.529 C798.728,188.512 800.031,188.514 801.674,186.534 z M837.551,185.5 L840.628,182.911 L843.705,185.5 C847.255,188.487 848.453,188.708 849.289,186.529 C849.651,185.588 848.792,183.825 847.123,182.084 L844.359,179.198 L846.993,176.067 C850.026,172.463 850.254,171.266 848.068,170.428 C847.127,170.067 845.365,170.926 843.623,172.594 L840.737,175.359 L837.557,172.683 C832.341,168.293 829.798,170.761 834.176,175.963 L836.806,179.089 L834.217,182.166 C831.52,185.371 831.178,186.306 832.295,187.422 C833.411,188.539 834.346,188.197 837.551,185.5 z M836.016,130.109 C832.234,128.581 829.628,124.194 829.628,119.354 C829.628,115.61 830.177,114.34 833.028,111.489 C835.859,108.658 837.161,108.089 840.806,108.089 C845.804,108.089 848.982,109.938 851.134,114.1 C856.225,123.946 846.431,134.317 836.016,130.109 z M783.857,124.42 C781.748,123.571 779.539,118.292 780.197,115.671 C781.676,109.78 788.626,107.86 793.136,112.097 C799.45,118.028 792.13,127.748 783.857,124.42 z M804.931,113.892 C801.991,112.472 799.401,106.841 800.209,103.625 C801.101,100.069 806.157,96.089 809.782,96.089 C811.765,96.089 813.773,97.08 815.705,99.012 C823.436,106.743 814.805,118.663 804.931,113.892 z M850.063,97.665 C848.071,96.209 848.674,93.393 851.183,92.43 C853.253,91.635 855.882,94.264 855.088,96.334 C854.215,98.608 852.114,99.165 850.063,97.665 z M827.698,96.22 C825.582,92.266 829.755,88.016 833.687,90.12 C835.23,90.946 835.668,92.019 835.437,94.406 C835.168,97.174 834.713,97.629 831.945,97.897 C829.591,98.126 828.484,97.688 827.698,96.22 z M791.668,95.637 C789.751,93.327 790.814,90.589 793.628,90.589 C795.213,90.589 796.225,91.235 796.447,92.387 C796.793,94.185 795.052,97.089 793.628,97.089 C793.213,97.089 792.331,96.436 791.668,95.637 z M803.828,82.889 C802.286,81.347 802.286,77.832 803.828,76.289 C805.371,74.747 808.886,74.747 810.428,76.289 C813.233,79.094 811.12,84.089 807.128,84.089 C805.973,84.089 804.488,83.549 803.828,82.889 z" fill="#2486C0"/>
    </g>
    <g>
      <path d="M823.652,376.495 C761.322,376.495 710.777,427.009 710.777,489.338 C710.777,551.668 761.322,602.213 823.652,602.213 C885.981,602.213 936.495,551.668 936.495,489.338 C936.495,427.009 885.981,376.495 823.652,376.495 z M823.652,392.213 C877.302,392.213 920.777,435.688 920.777,489.338 C920.777,542.989 877.302,586.495 823.652,586.495 C770.001,586.495 726.495,542.989 726.495,489.338 C726.495,435.688 770.001,392.213 823.652,392.213 z" fill="#2C5AA0"/>
      <g>
        <path d="M767.675,440.532 L767.675,489.098 C770.763,487.74 774.174,486.984 777.764,486.984 C791.627,486.984 802.868,498.215 802.868,512.078 C802.868,512.473 802.855,512.868 802.837,513.258 L824.287,513.258 C824.269,512.868 824.267,512.472 824.267,512.078 C824.267,498.215 835.498,486.984 849.361,486.984 C849.66,486.984 849.957,486.994 850.253,487.004 L850.253,440.532 L767.674,440.532 z" fill="#2C5AA0"/>
        <path d="M864.611,462.115 C860.453,462.115 857.109,465.469 857.109,469.628 L857.109,488.204 C867.182,491.468 874.464,500.917 874.464,512.077 C874.464,512.472 874.451,512.867 874.433,513.257 L879.811,513.257 C880.292,513.257 880.763,513.209 881.217,513.124 C881.675,513.21 882.14,513.257 882.623,513.257 L892.476,513.257 C896.635,513.257 899.989,509.913 899.989,505.755 L899.989,494.958 C899.989,490.799 896.635,487.455 892.476,487.455 L887.324,487.455 L887.324,469.628 C887.324,465.469 883.97,462.115 879.811,462.115 L864.611,462.115 z" fill="#2C5AA0"/>
        <path d="M799.012,512.083 C799.012,523.817 789.5,533.329 777.766,533.329 C766.032,533.329 756.52,523.817 756.52,512.083 C756.52,500.349 766.032,490.837 777.766,490.837 C789.5,490.837 799.012,500.349 799.012,512.083 z" fill="#2C5AA0"/>
        <path d="M870.61,512.083 C870.61,523.817 861.098,533.329 849.364,533.329 C837.63,533.329 828.118,523.817 828.118,512.083 C828.118,500.349 837.63,490.837 849.364,490.837 C861.098,490.837 870.61,500.349 870.61,512.083 z" fill="#2C5AA0"/>
      </g>
      <path d="M823.652,376.495 C761.322,376.495 710.777,427.009 710.777,489.338 C710.777,551.668 761.322,602.213 823.652,602.213 C885.981,602.213 936.495,551.668 936.495,489.338 C936.495,427.009 885.981,376.495 823.652,376.495 z M823.652,392.213 C877.302,392.213 920.777,435.688 920.777,489.338 C920.777,542.989 877.302,586.495 823.652,586.495 C770.001,586.495 726.495,542.989 726.495,489.338 C726.495,435.688 770.001,392.213 823.652,392.213 z" fill="#2C5AA0"/>
    </g>
    <g>
      <path d="M613.897,488.995 C613.897,551.225 563.449,601.673 501.218,601.673 C438.987,601.673 388.539,551.225 388.539,488.995 C388.509,426.742 438.966,376.261 501.218,376.261 C563.47,376.261 613.927,426.742 613.897,488.994 z" fill="#C8B7B7"/>
      <path d="M500.339,376.674 C438.009,376.674 387.464,427.188 387.464,489.517 C387.464,551.847 438.009,602.392 500.339,602.392 C562.668,602.392 613.182,551.847 613.182,489.517 C613.182,427.188 562.668,376.674 500.339,376.674 z M500.339,392.392 C553.989,392.392 597.464,435.867 597.464,489.517 C597.464,543.168 553.989,586.674 500.339,586.674 C446.688,586.674 403.182,543.168 403.182,489.517 C403.182,435.867 446.688,392.392 500.339,392.392 z" fill="#2CA05A"/>
      <g>
        <path d="M455.625,436.212 L455.625,548.492 L462.095,548.492 L462.095,442.031 L519.049,442.031 L519.049,548.492 L525.519,548.492 L525.519,436.212 L455.625,436.212 z" fill="#2CA05A"/>
        <path d="M455.619,436.211 L525.515,436.211 L525.515,548.497 L455.619,548.497 z" fill="#C8B7B7"/>
        <path d="M455.625,436.212 L455.625,548.492 L462.095,548.492 L462.095,442.031 L515.906,442.031 L515.906,441.323 L525.519,436.58 L525.519,436.212 L455.625,436.212 z" fill="#2CA05A"/>
        <path d="M559.006,421.643 L516.454,442.677 L516.454,548.491 L559.006,548.491 z" fill="#2CA05A"/>
        <g>
          <path d="M451.299,470.314 L451.299,483.342 L415.102,483.342 L415.102,498.736 L451.299,498.736 L451.299,511.78 C455.242,511.046 492.764,491.039 492.764,491.039 C492.764,491.039 455.158,471.336 451.299,470.314 z" fill="#C8B7B7"/>
          <path d="M452.949,472.763 L452.949,485.051 L417.033,485.051 L417.033,497.028 L452.949,497.028 L452.949,509.331 C456.427,508.684 489.517,491.04 489.517,491.04 C489.517,491.04 456.353,473.664 452.949,472.763 z" fill="#2CA05A"/>
        </g>
      </g>
    </g>
    <path d="M290.403,489.355 C290.403,551.585 239.955,602.033 177.724,602.033 C115.493,602.033 65.046,551.585 65.046,489.355 C65.015,427.102 115.472,376.621 177.724,376.621 C239.976,376.621 290.433,427.102 290.403,489.354 z" fill="#FF9955"/>
    <path d="M177.734,376.68 C115.503,376.68 65.046,427.137 65.046,489.368 C65.046,551.598 115.503,602.024 177.734,602.024 C239.964,602.024 290.39,551.598 290.39,489.368 C290.39,427.137 239.964,376.68 177.734,376.68 z M177.734,392.024 C231.483,392.024 275.046,435.618 275.046,489.368 C275.046,543.117 231.483,586.68 177.734,586.68 C123.984,586.68 80.39,543.117 80.39,489.368 C80.39,435.618 123.984,392.024 177.734,392.024 z" fill="#FFDD55"/>
    <text transform="matrix(1, 0, 0, 1, 177.725, 453.194)">
      <tspan x="-36" y="23" font-family="Helvetica" font-size="64" fill="#FFDD55">24</tspan>
    </text>
    <text transform="matrix(1, 0, 0, 1, 177.725, 531.194)">
      <tspan x="-18" y="23" font-family="Helvetica" font-size="64" fill="#FFDD55">7</tspan>
    </text>
    <path d="M125.224,489.427 L229.51,489.427 L229.51,497.641 L125.224,497.641 z" fill="#FFDD55"/>
    <g>
      <path d="M613.359,800.25 C613.359,862.48 562.912,912.928 500.681,912.928 C438.45,912.928 388.001,862.48 388.001,800.25 C387.971,737.997 438.429,687.516 500.681,687.516 C562.933,687.516 613.389,737.997 613.359,800.249 z" fill="#5FD3BC"/>
      <path d="M500.691,687.575 C438.46,687.575 388.003,738.032 388.003,800.263 C388.003,862.493 438.46,912.919 500.691,912.919 C562.921,912.919 613.347,862.493 613.347,800.263 C613.347,738.032 562.921,687.575 500.691,687.575 z M500.691,702.919 C554.44,702.919 598.003,746.513 598.003,800.263 C598.003,854.012 554.44,897.575 500.691,897.575 C446.941,897.575 403.347,854.012 403.347,800.263 C403.347,746.513 446.941,702.919 500.691,702.919 z" fill="#6C5353"/>
      <path d="M518.568,734.328 C513.321,734.736 508.722,737.063 505.413,740.491 C502.407,739.094 498.973,738.39 495.366,738.67 C487.34,739.294 480.84,744.465 478.508,751.232 C477.79,751.226 477.051,751.252 476.319,751.309 C464.778,752.205 456.059,760.831 456.815,770.565 C456.985,772.752 457.623,774.795 458.636,776.661 C455.53,779.895 453.78,783.95 454.113,788.234 C454.794,797.001 463.852,803.548 474.766,803.523 C474.717,804.305 474.698,805.073 474.76,805.875 C475.528,815.747 484.712,823.093 495.28,822.272 C501.094,821.82 506.1,818.977 509.312,814.881 C511.652,821.476 519.737,825.951 528.954,825.234 C537.014,824.608 543.562,820.205 545.956,814.51 C549.27,816.038 553.114,816.775 557.141,816.462 C568.543,815.576 577.126,806.628 576.338,796.477 C576.224,795.013 575.946,793.588 575.476,792.25 C580.305,789.559 583.158,786.226 582.892,782.804 C582.708,780.431 581.027,778.316 578.305,776.609 C580.096,774.513 581.062,772.162 580.876,769.764 C580.455,764.35 574.424,760.146 566.13,758.686 C566.198,758.125 566.23,757.559 566.186,756.989 C565.602,749.48 555.215,744.175 542.978,745.126 C541.403,745.249 539.887,745.456 538.42,745.762 C535.196,738.483 527.342,733.647 518.568,734.328 z" fill="#6C5353"/>
      <path d="M462.285,828.715 C462.285,834.154 457.875,838.564 452.436,838.564 C446.997,838.564 442.587,834.154 442.587,828.715 C442.587,823.276 446.997,818.866 452.436,818.866 C457.875,818.866 462.285,823.276 462.285,828.715 z" fill="#6C5353"/>
      <path d="M438.546,849.928 C438.546,852.578 436.398,854.726 433.748,854.726 C431.098,854.726 428.95,852.578 428.95,849.928 C428.95,847.278 431.098,845.13 433.748,845.13 C436.398,845.13 438.546,847.278 438.546,849.928 z" fill="#6C5353"/>
    </g>
    <path d="M935.741,800.25 C935.741,862.48 885.294,912.928 823.063,912.928 C760.833,912.928 710.384,862.48 710.384,800.25 C710.353,737.997 760.811,687.516 823.063,687.516 C885.315,687.516 935.771,737.997 935.741,800.249 z" fill="#778CD3"/>
    <path d="M310.897,789.411 C310.897,851.642 260.45,902.09 198.219,902.09 C135.989,902.09 85.54,851.642 85.54,789.411 C85.51,727.159 135.967,676.677 198.219,676.677 C260.472,676.677 310.927,727.159 310.897,789.411 z" fill="url(#Gradient_1)"/>
    <path d="M823.652,687.516 C761.421,687.516 710.964,737.973 710.964,800.203 C710.964,862.434 761.421,912.86 823.652,912.86 C885.882,912.86 936.308,862.434 936.308,800.203 C936.308,737.973 885.882,687.516 823.652,687.516 z M823.652,702.86 C877.401,702.86 920.964,746.454 920.964,800.203 C920.964,853.953 877.401,897.516 823.652,897.516 C769.903,897.516 726.308,853.953 726.308,800.203 C726.308,746.454 769.903,702.86 823.652,702.86 z" fill="#6C6033"/>
    <path d="M762.348,795.822 C754.757,794.067 750.719,783.494 753.328,772.206 C755.938,760.918 764.207,753.19 771.798,754.945 C779.389,756.7 783.428,767.273 780.818,778.561 C778.209,789.849 769.939,797.577 762.348,795.822 z" fill="#6C6033"/>
    <g>
      <path d="M796.274,821.434 C783.928,820.043 775.177,807.753 776.728,793.983 C778.279,780.214 789.544,770.178 801.891,771.569 C814.237,772.959 822.988,785.249 821.437,799.019 C819.886,812.789 808.62,822.824 796.274,821.434 z" fill="#6C6033"/>
      <path d="M849.852,821.434 C862.198,820.043 870.949,807.753 869.398,793.983 C867.847,780.214 856.581,770.178 844.235,771.569 C831.889,772.959 823.138,785.249 824.689,799.019 C826.24,812.789 837.506,822.824 849.852,821.434 z" fill="#6C6033"/>
    </g>
    <path d="M175.884,883.462 C178.226,881.223 179.462,879.499 180.337,877.106 C181.676,873.448 181.608,869.474 181.727,865.63 C181.779,864.061 181.779,864.061 181.882,863.418 L179.745,863.289 C179.822,863.881 179.848,864.19 179.848,865.116 C179.848,870.545 179.488,873.916 178.69,876.154 C177.84,878.547 176.45,880.4 174.339,882.072 C175.111,882.561 175.369,882.793 175.884,883.462 z M185.923,882.201 L186.953,883.385 C187.185,883.256 187.236,883.23 187.545,883.102 C187.905,882.973 187.905,882.973 188.369,882.793 C189.888,882.201 190.917,881.686 192.05,880.914 C194.264,879.396 195.963,877.261 197.224,874.302 C196.529,873.736 196.323,873.504 195.783,872.809 C195.165,874.791 194.161,876.489 192.745,877.956 C191.406,879.319 190.094,880.143 187.957,880.94 L188.111,865.399 C188.111,864.215 188.137,863.752 188.266,863.135 L186.155,863.109 C186.258,863.726 186.258,863.726 186.258,865.399 L186.104,880.451 C186.104,881.558 186.078,881.764 185.923,882.201 z M212.119,872.138 C214.333,872.138 215.941,871.293 216.945,869.604 C217.949,867.914 218.451,865.491 218.451,862.335 C218.451,860.602 218.284,859.174 217.949,858.05 C217.615,856.927 217.164,856.039 216.598,855.387 C216.032,854.735 215.371,854.277 214.616,854.011 C213.861,853.745 213.054,853.612 212.196,853.612 C211.321,853.612 210.514,853.758 209.776,854.049 C209.038,854.341 208.403,854.748 207.871,855.272 C207.339,855.795 206.927,856.421 206.636,857.15 C206.344,857.879 206.198,858.681 206.198,859.556 C206.198,860.448 206.322,861.271 206.571,862.026 C206.82,862.781 207.189,863.424 207.678,863.956 C208.167,864.487 208.772,864.903 209.493,865.204 C210.214,865.504 211.038,865.654 211.964,865.654 C212.857,865.654 213.68,865.427 214.436,864.972 C215.191,864.517 215.774,863.904 216.186,863.132 L216.238,863.184 C216.169,865.568 215.8,867.339 215.131,868.497 C214.461,869.655 213.457,870.234 212.119,870.234 C211.244,870.234 210.488,869.994 209.853,869.513 C209.218,869.033 208.858,868.347 208.772,867.455 L206.584,867.455 C206.721,869.033 207.296,870.208 208.309,870.98 C209.321,871.752 210.591,872.138 212.119,872.138 z M212.119,863.724 C211.587,863.724 211.102,863.617 210.664,863.402 C210.227,863.188 209.849,862.901 209.532,862.54 C209.214,862.18 208.965,861.769 208.785,861.305 C208.605,860.842 208.515,860.362 208.515,859.864 C208.515,859.298 208.579,858.758 208.708,858.243 C208.837,857.729 209.043,857.27 209.326,856.867 C209.609,856.464 209.978,856.142 210.433,855.902 C210.887,855.662 211.441,855.542 212.093,855.542 C212.711,855.542 213.251,855.653 213.715,855.876 C214.178,856.099 214.569,856.404 214.886,856.79 C215.204,857.176 215.444,857.617 215.607,858.115 C215.77,858.612 215.851,859.144 215.851,859.71 C215.851,860.242 215.766,860.752 215.594,861.241 C215.422,861.73 215.174,862.159 214.848,862.528 C214.521,862.896 214.127,863.188 213.663,863.402 C213.2,863.617 212.685,863.724 212.119,863.724 z M128.312,859.083 L130.501,859.083 L130.501,840.84 L128.827,840.84 C128.707,841.526 128.484,842.092 128.158,842.538 C127.832,842.984 127.433,843.336 126.961,843.593 C126.489,843.85 125.961,844.026 125.378,844.12 C124.794,844.215 124.194,844.262 123.576,844.262 L123.576,846.012 L128.312,846.012 z M236.587,868.27 C238.389,868.27 239.625,868.192 242.276,867.935 C243.692,867.781 243.692,867.781 244.181,867.781 L243.975,865.645 C242.456,866.185 239.573,866.52 236.613,866.52 C231.567,866.52 229.585,865.619 229.585,863.278 C229.585,861.142 231.49,859.444 235.892,857.694 C238.157,856.768 241.839,855.584 243.641,855.198 L242.868,853.243 C242.353,853.5 242.122,853.577 241.221,853.912 C237.231,855.301 236.51,855.584 234.991,856.202 C234.116,853.629 233.163,849.409 233.06,847.685 L231.027,848.071 C231.181,848.483 231.233,848.611 231.464,849.692 C232.134,852.985 232.623,854.787 233.344,856.896 C231.748,857.694 230.95,858.183 229.971,858.981 C228.453,860.216 227.68,861.708 227.68,863.355 C227.68,865.388 228.761,866.803 230.872,867.575 C232.108,868.038 234.039,868.27 236.587,868.27 z M281.025,845.293 L281.025,842.802 L282.709,842.802 z M159.856,859.141 L161.941,859.141 C161.864,858.446 161.812,857.622 161.812,856.516 L161.632,843.985 L165.468,843.985 C166.523,843.985 167.064,844.011 167.604,844.062 L167.604,842.184 C166.78,842.313 166.472,842.339 165.03,842.339 L161.632,842.339 C161.576,839.56 161.581,840.623 161.581,839.148 C161.581,838.71 161.606,838.299 161.684,837.733 L159.624,837.733 C159.727,838.479 159.727,838.479 159.753,839.817 L159.779,842.339 L150.408,842.39 C148.89,842.39 148.426,842.364 147.499,842.21 L147.499,844.14 C148.375,844.037 148.735,844.037 150.357,844.037 L158.8,843.985 C157.951,845.452 156.535,847.227 155.093,848.668 C152.39,851.37 149.482,853.428 146.367,854.818 C147.036,855.358 147.242,855.616 147.654,856.362 C149.739,855.178 150.743,854.561 151.901,853.712 C154.398,851.91 156.664,849.8 158.002,848.025 C159.212,846.43 159.444,846.095 159.933,845.143 C159.882,846.25 159.856,846.635 159.856,846.816 L159.856,847.073 L159.959,856.542 C159.959,856.696 159.959,856.825 159.959,857.108 C159.959,858.111 159.933,858.394 159.856,859.141 z M214.049,841.158 L216.109,841.158 L216.109,836.887 L218.58,836.887 L218.58,834.957 L216.109,834.957 L216.109,822.915 L214.358,822.915 L206.044,834.777 L206.044,836.887 L214.049,836.887 z M281.025,840.743 L281.025,834.902 L287.206,834.902 L284.033,840.743 z M185.486,845.072 L187.725,845.072 C187.622,844.377 187.597,843.811 187.597,842.344 L187.597,831.383 C189.81,829.788 191.999,827.909 193.62,826.211 C194.264,825.516 194.29,825.465 194.753,825.13 L192.977,823.87 C192.256,825.079 190.454,826.88 188.06,828.733 C183.993,831.923 179.539,834.136 174.7,835.397 C175.214,836.04 175.343,836.298 175.704,837.121 C180.414,835.526 182.294,834.677 185.64,832.618 L185.64,842.396 C185.64,843.811 185.614,844.403 185.486,845.072 z M207.923,834.957 L213.998,826.029 L214.049,826.029 L214.049,834.957 z M266.56,851.345 L268.542,851.345 C268.465,850.753 268.439,850.084 268.439,849.261 L268.439,834.543 C268.465,832.973 268.465,832.973 268.49,832.484 C267.744,832.562 267.461,832.562 266.379,832.562 L254.667,832.562 C253.174,832.562 252.556,832.536 251.655,832.407 L251.655,834.363 C252.53,834.26 253.277,834.234 254.641,834.234 L266.56,834.234 L266.56,840.126 L255.387,840.126 C253.869,840.126 253.302,840.101 252.376,839.972 L252.376,841.902 C253.251,841.799 253.972,841.773 255.362,841.773 L266.56,841.773 L266.56,848.026 L254.332,848.026 C252.813,848.026 252.247,848 251.32,847.871 L251.32,849.827 C252.221,849.724 252.865,849.698 254.306,849.698 L266.56,849.698 z M236.536,829.236 C238.801,829.236 241.247,829.03 243.486,828.644 C243.924,828.567 244.027,828.541 244.361,828.516 L244.13,826.406 C242.688,826.998 239.625,827.383 236.407,827.383 C234.373,827.383 232.674,827.203 231.696,826.869 C230.254,826.38 229.508,825.531 229.508,824.347 C229.508,823.138 230.28,821.954 231.954,820.565 L230.641,819.587 C228.658,821.26 227.68,822.881 227.68,824.553 C227.68,826.329 228.684,827.641 230.615,828.438 C231.876,828.927 234.064,829.236 236.536,829.236 z M104.114,823.338 L103.829,822.495 C105.459,822.354 104.683,822.449 106.158,822.224 C105.505,822.551 104.868,822.904 104.233,823.265 z M128.132,828.669 C130.346,828.669 131.955,827.824 132.959,826.135 C133.963,824.445 134.465,822.022 134.465,818.866 C134.465,817.133 134.297,815.705 133.963,814.582 C133.628,813.458 133.178,812.57 132.611,811.919 C132.045,811.267 131.384,810.808 130.629,810.542 C129.874,810.276 129.067,810.143 128.209,810.143 C127.334,810.143 126.528,810.289 125.79,810.581 C125.052,810.872 124.417,811.279 123.885,811.803 C123.353,812.326 122.941,812.952 122.649,813.681 C122.357,814.41 122.211,815.212 122.211,816.087 C122.211,816.979 122.336,817.802 122.585,818.557 C122.834,819.312 123.203,819.955 123.692,820.487 C124.181,821.019 124.786,821.435 125.506,821.735 C126.227,822.035 127.051,822.185 127.978,822.185 C128.87,822.185 129.694,821.958 130.449,821.503 C131.204,821.049 131.788,820.435 132.199,819.663 L132.251,819.715 C132.182,822.099 131.813,823.87 131.144,825.028 C130.475,826.186 129.471,826.765 128.132,826.765 C127.257,826.765 126.502,826.525 125.867,826.045 C125.232,825.564 124.871,824.878 124.786,823.986 L122.598,823.986 C122.735,825.564 123.31,826.739 124.322,827.511 C125.335,828.283 126.605,828.669 128.132,828.669 z M283.728,820.802 C284.689,820.802 285.504,820.669 286.174,820.403 C286.843,820.137 287.401,819.773 287.847,819.31 C288.293,818.846 288.645,818.31 288.902,817.701 C289.16,817.092 289.357,816.445 289.494,815.759 C289.632,815.073 289.717,814.369 289.752,813.649 C289.786,812.928 289.803,812.234 289.803,811.565 C289.803,810.896 289.786,810.201 289.752,809.48 C289.717,808.76 289.632,808.057 289.494,807.371 C289.357,806.684 289.16,806.033 288.902,805.415 C288.645,804.798 288.293,804.257 287.847,803.794 C287.401,803.331 286.839,802.962 286.161,802.688 C285.483,802.413 284.672,802.276 283.728,802.276 C282.784,802.276 281.973,802.413 281.295,802.688 C280.618,802.962 280.055,803.331 279.609,803.794 C279.163,804.257 278.811,804.798 278.554,805.415 C278.296,806.033 278.099,806.684 277.962,807.371 C277.824,808.057 277.739,808.76 277.704,809.48 C277.67,810.201 277.653,810.896 277.653,811.565 C277.653,812.234 277.67,812.928 277.704,813.649 C277.739,814.369 277.824,815.073 277.962,815.759 C278.099,816.445 278.296,817.092 278.554,817.701 C278.811,818.31 279.163,818.846 279.609,819.31 C280.055,819.773 280.618,820.137 281.295,820.403 C281.973,820.669 282.784,820.802 283.728,820.802 z M128.132,820.255 C127.6,820.255 127.115,820.148 126.678,819.934 C126.24,819.719 125.863,819.432 125.545,819.072 C125.228,818.711 124.979,818.3 124.799,817.837 C124.618,817.373 124.528,816.893 124.528,816.396 C124.528,815.83 124.593,815.289 124.721,814.775 C124.85,814.26 125.056,813.801 125.339,813.398 C125.622,812.995 125.991,812.673 126.446,812.433 C126.901,812.193 127.454,812.073 128.106,812.073 C128.724,812.073 129.265,812.184 129.728,812.407 C130.192,812.63 130.582,812.935 130.9,813.321 C131.217,813.707 131.457,814.148 131.62,814.646 C131.783,815.143 131.865,815.675 131.865,816.241 C131.865,816.773 131.779,817.283 131.607,817.772 C131.436,818.261 131.187,818.69 130.861,819.059 C130.535,819.427 130.14,819.719 129.677,819.934 C129.213,820.148 128.699,820.255 128.132,820.255 z M283.728,818.898 C282.801,818.898 282.081,818.641 281.566,818.126 C281.051,817.611 280.678,816.981 280.446,816.235 C280.214,815.489 280.077,814.691 280.034,813.842 C279.991,812.993 279.97,812.225 279.97,811.539 C279.97,811.093 279.974,810.6 279.983,810.059 C279.991,809.519 280.034,808.979 280.111,808.438 C280.188,807.898 280.3,807.371 280.446,806.856 C280.592,806.341 280.806,805.891 281.089,805.505 C281.373,805.119 281.729,804.806 282.158,804.566 C282.587,804.326 283.11,804.206 283.728,804.206 C284.346,804.206 284.869,804.326 285.298,804.566 C285.727,804.806 286.083,805.119 286.367,805.505 C286.65,805.891 286.864,806.341 287.01,806.856 C287.156,807.37 287.268,807.898 287.345,808.438 C287.422,808.979 287.465,809.519 287.474,810.059 C287.482,810.6 287.486,811.093 287.486,811.539 C287.486,812.225 287.465,812.993 287.422,813.842 C287.379,814.691 287.242,815.489 287.01,816.235 C286.779,816.981 286.405,817.611 285.89,818.126 C285.376,818.641 284.655,818.898 283.728,818.898 z M157.333,818.795 C156.226,818.795 155.119,818.563 154.45,818.203 C153.755,817.792 153.42,817.303 153.42,816.634 C153.42,815.656 154.218,815.038 155.505,815.038 C157.359,815.038 158.646,816.273 159.212,818.615 C158.285,818.769 157.977,818.795 157.333,818.795 z M255.542,813.572 C258.374,812.183 260.459,810.665 262.415,808.58 C265.17,805.622 267.203,801.556 268.284,796.822 C268.696,795.046 268.696,795.046 268.954,794.377 L266.791,793.811 C266.74,794.583 266.688,794.995 266.482,795.947 C265.375,800.861 263.625,804.515 260.948,807.346 C259.017,809.404 257.061,810.742 254.178,812.003 C254.821,812.492 255.027,812.723 255.542,813.572 z M234.94,815.805 L236.252,816.86 C238.775,815.033 241.144,813.618 242.74,812.949 L242.611,811.25 C241.195,811.611 239.11,811.791 236.098,811.791 C233.163,811.791 231.13,811.611 229.251,811.173 L229.096,813 C229.431,813 229.482,813.026 229.946,813.077 C231.619,813.283 233.807,813.412 235.609,813.412 C237.076,813.412 237.951,813.335 239.496,813.077 C239.123,813.283 238.738,813.466 238.363,813.669 C237.205,814.312 236.587,814.698 234.94,815.805 z M212.299,810.462 L214.487,810.462 L214.487,792.219 L212.814,792.219 C212.694,792.905 212.471,793.471 212.145,793.917 C211.818,794.363 211.419,794.714 210.947,794.972 C210.476,795.229 209.948,795.405 209.364,795.499 C208.781,795.594 208.18,795.641 207.562,795.641 L207.562,797.39 L212.299,797.39 z M254.461,802.637 L256.366,801.839 C255.284,798.34 254.589,796.796 252.916,793.94 L251.088,794.66 C252.53,796.95 253.663,799.626 254.461,802.637 z M157.462,820.287 C163.177,820.287 166.909,817.637 166.909,813.623 C166.909,810.33 164.155,808.22 159.856,808.22 C157.59,808.22 155.505,808.76 153.549,809.815 L153.497,809.738 C155.299,808.58 158.414,805.904 161.967,802.43 C162.79,801.633 162.919,801.53 163.28,801.35 L162.198,799.934 C161.864,800.115 161.632,800.166 160.963,800.217 C158.646,800.398 155.222,800.552 153.086,800.552 C151.85,800.552 151.387,800.526 150.666,800.398 L150.769,802.327 C151.335,802.25 151.592,802.224 152.159,802.199 C156.072,802.07 159.161,801.89 159.984,801.735 C160.139,801.71 160.139,801.71 160.216,801.71 L160.268,801.761 L159.701,802.327 C157.925,804.077 153.858,807.654 151.103,809.841 C149.353,811.256 148.426,811.925 147.499,812.465 L148.658,814.112 C151.644,811.359 155.711,809.712 159.495,809.712 C162.971,809.712 165.03,811.179 165.03,813.649 C165.03,815.836 163.614,817.405 160.911,818.152 C160.551,817.02 160.268,816.402 159.727,815.682 C158.697,814.318 157.204,813.572 155.48,813.572 C153.343,813.572 151.747,814.858 151.747,816.582 C151.747,818.949 153.832,820.287 157.462,820.287 z M102.811,799.529 L103.841,800.713 C104.073,800.584 104.124,800.558 104.433,800.43 C104.793,800.301 104.793,800.301 105.257,800.121 C106.776,799.529 107.805,799.015 108.938,798.243 C111.152,796.724 112.851,794.589 114.112,791.63 C113.417,791.064 113.211,790.832 112.671,790.138 C112.053,792.119 111.049,793.817 109.633,795.284 C108.294,796.647 106.981,797.471 104.845,798.268 L104.999,782.727 C104.999,781.543 105.025,781.08 105.154,780.463 L103.043,780.437 C103.146,781.055 103.146,781.055 103.146,782.727 L102.991,797.78 C102.991,798.886 102.966,799.092 102.811,799.529 z M128.699,796.068 C128.098,796.068 127.562,795.961 127.09,795.747 C126.618,795.532 126.223,795.245 125.905,794.885 C125.588,794.525 125.343,794.096 125.172,793.598 C125,793.101 124.914,792.569 124.914,792.003 C124.914,791.437 124.996,790.901 125.159,790.395 C125.322,789.889 125.567,789.451 125.893,789.083 C126.219,788.714 126.613,788.422 127.077,788.208 C127.54,787.993 128.081,787.886 128.699,787.886 C129.316,787.886 129.857,787.998 130.32,788.221 C130.784,788.444 131.17,788.739 131.479,789.108 C131.788,789.477 132.015,789.914 132.161,790.421 C132.307,790.927 132.38,791.463 132.38,792.029 C132.38,792.56 132.298,793.071 132.135,793.56 C131.972,794.049 131.736,794.482 131.427,794.859 C131.118,795.236 130.736,795.532 130.282,795.747 C129.827,795.961 129.299,796.068 128.699,796.068 z M235.815,790.306 C234.708,790.306 233.601,790.074 232.932,789.714 C232.237,789.302 231.902,788.813 231.902,788.144 C231.902,787.166 232.7,786.549 233.987,786.549 C235.841,786.549 237.128,787.784 237.694,790.126 C236.767,790.28 236.458,790.306 235.815,790.306 z M188.111,806.682 L190.197,806.682 C190.119,805.987 190.068,805.164 190.068,804.057 L189.888,791.526 L193.723,791.526 C194.779,791.526 195.319,791.552 195.86,791.603 L195.86,789.725 C195.036,789.854 194.727,789.879 193.286,789.879 L189.888,789.879 C189.832,787.101 189.836,788.164 189.836,786.689 C189.836,786.251 189.862,785.84 189.939,785.274 L187.88,785.274 C187.983,786.02 187.983,786.02 188.008,787.358 L188.034,789.879 L178.664,789.931 C177.145,789.931 176.682,789.905 175.755,789.751 L175.755,791.681 C176.63,791.578 176.991,791.578 178.612,791.578 L187.056,791.526 C186.206,792.993 184.791,794.768 183.349,796.209 C180.646,798.911 177.737,800.969 174.622,802.359 C175.292,802.899 175.498,803.156 175.91,803.903 C177.995,802.719 178.999,802.101 180.157,801.252 C182.654,799.451 184.919,797.341 186.258,795.566 C187.468,793.971 187.7,793.636 188.189,792.684 C188.137,793.791 188.111,794.176 188.111,794.357 L188.111,794.614 L188.214,804.083 C188.214,804.237 188.214,804.366 188.214,804.649 C188.214,805.652 188.189,805.935 188.111,806.682 z M283.548,789.822 L285.736,789.822 L285.736,771.579 L284.063,771.579 C283.943,772.265 283.719,772.831 283.393,773.277 C283.067,773.723 282.668,774.075 282.196,774.332 C281.724,774.59 281.197,774.765 280.613,774.86 C280.03,774.954 279.429,775.001 278.811,775.001 L278.811,776.751 L283.548,776.751 z M128.596,797.972 C129.745,797.972 130.711,797.779 131.492,797.394 C132.272,797.008 132.899,796.519 133.371,795.927 C133.843,795.335 134.182,794.679 134.388,793.958 C134.594,793.238 134.697,792.543 134.697,791.874 C134.697,791.034 134.568,790.253 134.31,789.533 C134.053,788.812 133.688,788.186 133.216,787.654 C132.744,787.123 132.161,786.707 131.466,786.406 C130.771,786.106 129.986,785.956 129.11,785.956 C128.115,785.956 127.235,786.145 126.472,786.522 C125.708,786.9 125.069,787.509 124.554,788.349 L124.503,788.298 C124.52,787.594 124.588,786.84 124.708,786.034 C124.829,785.227 125.047,784.477 125.365,783.782 C125.682,783.087 126.124,782.513 126.691,782.058 C127.257,781.603 128.003,781.376 128.93,781.376 C129.805,781.376 130.509,781.625 131.041,782.122 C131.573,782.62 131.891,783.28 131.994,784.104 L134.182,784.104 C134.044,782.594 133.529,781.441 132.637,780.643 C131.745,779.845 130.543,779.446 129.033,779.446 C127.729,779.446 126.648,779.721 125.79,780.27 C124.932,780.819 124.245,781.548 123.73,782.457 C123.215,783.366 122.851,784.408 122.636,785.583 C122.422,786.758 122.314,787.972 122.314,789.224 C122.314,790.185 122.387,791.18 122.533,792.209 C122.679,793.238 122.975,794.182 123.421,795.039 C123.868,795.897 124.503,796.6 125.326,797.149 C126.15,797.698 127.24,797.972 128.596,797.972 z M212.556,780.048 C213.397,780.048 214.187,779.928 214.925,779.688 C215.663,779.448 216.302,779.092 216.843,778.62 C217.383,778.148 217.812,777.569 218.13,776.883 C218.447,776.197 218.606,775.408 218.606,774.516 C218.606,773.384 218.34,772.427 217.808,771.647 C217.276,770.866 216.461,770.305 215.362,769.962 C216.135,769.618 216.748,769.108 217.203,768.431 C217.658,767.753 217.885,767.003 217.885,766.179 C217.885,765.596 217.782,765.026 217.576,764.468 C217.37,763.911 217.048,763.413 216.611,762.976 C216.173,762.538 215.603,762.187 214.899,761.921 C214.195,761.655 213.346,761.522 212.35,761.522 C211.647,761.522 210.973,761.625 210.33,761.831 C209.686,762.036 209.115,762.337 208.618,762.731 C208.12,763.126 207.725,763.61 207.434,764.185 C207.142,764.76 206.996,765.424 206.996,766.179 C206.996,767.003 207.228,767.762 207.691,768.456 C208.154,769.151 208.772,769.653 209.545,769.962 C208.515,770.322 207.725,770.901 207.176,771.698 C206.627,772.496 206.352,773.435 206.352,774.516 C206.352,775.442 206.511,776.253 206.829,776.947 C207.146,777.642 207.584,778.221 208.142,778.684 C208.699,779.147 209.356,779.491 210.111,779.714 C210.866,779.936 211.681,780.048 212.556,780.048 z M212.556,778.144 C211.424,778.144 210.493,777.831 209.763,777.205 C209.034,776.579 208.669,775.717 208.669,774.619 C208.669,774.087 208.768,773.607 208.965,773.178 C209.163,772.749 209.437,772.38 209.789,772.071 C210.141,771.763 210.553,771.527 211.025,771.364 C211.497,771.201 211.999,771.119 212.531,771.119 C213.045,771.119 213.53,771.21 213.985,771.39 C214.44,771.57 214.839,771.814 215.182,772.123 C215.525,772.432 215.796,772.796 215.993,773.216 C216.19,773.637 216.289,774.096 216.289,774.593 C216.289,775.108 216.199,775.579 216.019,776.008 C215.839,776.437 215.581,776.81 215.246,777.128 C214.912,777.445 214.517,777.694 214.062,777.874 C213.608,778.054 213.106,778.144 212.556,778.144 z M155.711,774.384 C154.141,774.384 153.06,773.329 153.06,771.837 C153.06,770.293 154.295,769.135 155.917,769.135 C156.612,769.135 157.153,769.263 157.642,769.547 C158.388,769.958 158.723,770.499 158.723,771.348 C158.723,773.149 157.487,774.384 155.711,774.384 z M235.944,791.798 C241.658,791.798 245.391,789.148 245.391,785.134 C245.391,781.84 242.637,779.73 238.338,779.73 C236.072,779.73 233.987,780.271 232.031,781.326 L231.979,781.249 C233.781,780.091 236.896,777.415 240.449,773.941 C241.272,773.143 241.401,773.04 241.761,772.86 L240.68,771.445 C240.346,771.625 240.114,771.677 239.445,771.728 C237.128,771.908 233.704,772.063 231.567,772.063 C230.332,772.063 229.868,772.037 229.148,771.908 L229.251,773.838 C229.817,773.761 230.074,773.735 230.641,773.709 C234.554,773.581 237.643,773.401 238.466,773.246 C238.621,773.221 238.621,773.221 238.698,773.221 L238.749,773.272 L238.183,773.838 C236.407,775.588 232.34,779.164 229.585,781.351 C227.835,782.767 226.908,783.436 225.981,783.976 L227.14,785.623 C230.126,782.869 234.193,781.223 237.977,781.223 C241.452,781.223 243.512,782.689 243.512,785.16 C243.512,787.347 242.096,788.916 239.393,789.662 C239.033,788.53 238.749,787.913 238.209,787.192 C237.179,785.829 235.686,785.082 233.961,785.082 C231.825,785.082 230.229,786.369 230.229,788.093 C230.229,790.46 232.314,791.798 235.944,791.798 z M269.057,774.384 L270.859,773.407 C269.082,769.264 266.508,764.607 264.449,761.776 L262.853,762.651 C264.114,764.401 265.453,766.614 266.817,769.316 C263.779,769.907 257.73,770.705 254.306,770.937 C256.031,767 257.782,762.059 259.661,755.884 C259.918,755.035 260.098,754.52 260.356,754.032 L258.09,753.491 C257.884,754.958 257.318,757.016 256.057,760.902 C254.795,764.761 253.766,767.489 252.17,771.091 C251.578,771.143 250.162,771.22 249.982,771.22 C249.853,771.22 249.853,771.22 249.261,771.194 L249.518,773.33 C250.007,773.227 250.728,773.124 251.706,773.047 C258.09,772.455 263.213,771.76 267.538,770.911 C268.13,772.095 268.49,772.918 269.057,774.384 z M212.556,769.19 C212.11,769.19 211.69,769.13 211.295,769.01 C210.9,768.889 210.557,768.709 210.265,768.469 C209.974,768.229 209.742,767.925 209.57,767.556 C209.399,767.187 209.313,766.754 209.313,766.256 C209.313,765.793 209.399,765.39 209.57,765.047 C209.742,764.704 209.969,764.412 210.252,764.172 C210.536,763.932 210.875,763.752 211.269,763.632 C211.664,763.512 212.076,763.452 212.505,763.452 C213.397,763.452 214.131,763.688 214.706,764.159 C215.281,764.631 215.568,765.33 215.568,766.256 C215.568,767.183 215.285,767.903 214.719,768.418 C214.152,768.932 213.432,769.19 212.556,769.19 z M130.063,766.993 L132.122,766.993 L132.122,762.721 L134.594,762.721 L134.594,760.792 L132.122,760.792 L132.122,748.75 L130.372,748.75 L122.057,760.612 L122.057,762.721 L130.063,762.721 z M185.589,766.336 C184.482,766.336 183.375,766.104 182.706,765.744 C182.01,765.332 181.676,764.844 181.676,764.174 C181.676,763.197 182.474,762.579 183.761,762.579 C185.614,762.579 186.902,763.814 187.468,766.156 C186.541,766.31 186.232,766.336 185.589,766.336 z M153.575,782.309 C155.454,781.588 156.586,780.997 157.642,780.225 C159.856,778.552 161.091,776.185 161.091,773.509 C161.091,772.377 160.911,771.553 160.474,770.473 L160.474,765.378 C163.029,765.332 165.595,765.236 168.145,765.455 L168.145,763.628 C167.295,763.731 165.313,763.783 160.448,763.809 C160.435,762.64 160.446,761.472 160.577,760.309 L158.646,760.309 C158.723,760.85 158.749,761.133 158.749,761.802 L158.8,763.834 C157.05,763.886 155.042,763.937 152.571,764.04 C148.426,764.194 148.426,764.194 147.68,764.194 C147.293,764.194 147.113,764.194 146.65,764.169 L146.727,766.047 C148.452,765.764 153.652,765.507 158.826,765.404 C158.826,766.382 158.826,766.382 158.826,766.742 C158.826,767.051 158.852,767.308 158.852,767.411 C158.852,768.363 158.852,768.466 158.878,768.826 C158.208,768.08 157.127,767.668 155.891,767.668 C153.266,767.668 151.335,769.469 151.335,771.914 C151.335,774.281 153.086,775.979 155.557,775.979 C156.921,775.979 158.028,775.516 158.8,774.59 C159.109,774.229 159.264,773.946 159.495,773.329 C159.392,775.67 158.491,777.343 156.612,778.758 C155.583,779.53 154.45,780.045 152.442,780.688 C152.983,781.254 153.137,781.485 153.575,782.309 z M123.936,760.792 L130.011,751.863 L130.063,751.863 L130.063,760.792 z M283.368,750.995 C282.836,750.995 282.351,750.887 281.913,750.673 C281.476,750.459 281.098,750.171 280.781,749.811 C280.463,749.451 280.214,749.039 280.034,748.576 C279.854,748.113 279.764,747.633 279.764,747.135 C279.764,746.569 279.828,746.029 279.957,745.514 C280.085,744.999 280.291,744.541 280.575,744.138 C280.858,743.734 281.227,743.413 281.682,743.173 C282.136,742.932 282.69,742.812 283.342,742.812 C283.96,742.812 284.5,742.924 284.964,743.147 C285.427,743.37 285.818,743.674 286.135,744.06 C286.452,744.446 286.693,744.888 286.856,745.385 C287.019,745.883 287.1,746.415 287.1,746.981 C287.1,747.512 287.014,748.023 286.843,748.512 C286.671,749.001 286.422,749.429 286.096,749.798 C285.77,750.167 285.376,750.459 284.912,750.673 C284.449,750.887 283.934,750.995 283.368,750.995 z M185.717,767.828 C191.432,767.828 195.165,765.178 195.165,761.164 C195.165,757.871 192.41,755.761 188.111,755.761 C185.846,755.761 183.761,756.301 181.805,757.356 L181.753,757.279 C183.555,756.121 186.67,753.445 190.222,749.971 C191.046,749.174 191.175,749.071 191.535,748.891 L190.454,747.475 C190.119,747.656 189.888,747.707 189.218,747.758 C186.902,747.939 183.478,748.093 181.341,748.093 C180.106,748.093 179.642,748.067 178.921,747.939 L179.024,749.868 C179.591,749.791 179.848,749.765 180.414,749.74 C184.327,749.611 187.416,749.431 188.24,749.276 C188.395,749.251 188.395,749.251 188.472,749.251 L188.523,749.302 L187.957,749.868 C186.181,751.618 182.113,755.195 179.359,757.382 C177.609,758.797 176.682,759.466 175.755,760.006 L176.913,761.653 C179.9,758.9 183.967,757.253 187.751,757.253 C191.226,757.253 193.286,758.72 193.286,761.19 C193.286,763.377 191.87,764.946 189.167,765.693 C188.806,764.561 188.523,763.943 187.983,763.222 C186.953,761.859 185.46,761.113 183.735,761.113 C181.599,761.113 180.003,762.399 180.003,764.123 C180.003,766.49 182.088,767.828 185.717,767.828 z M234.193,745.895 C232.623,745.895 231.542,744.84 231.542,743.347 C231.542,741.803 232.777,740.646 234.399,740.646 C235.094,740.646 235.635,740.774 236.124,741.057 C236.87,741.469 237.205,742.009 237.205,742.858 C237.205,744.659 235.969,745.895 234.193,745.895 z M158.62,741.32 C156.715,741.32 155.557,740.548 155.557,739.287 C155.557,737.975 156.844,737.177 158.955,737.177 C159.83,737.177 160.422,737.28 161.555,737.64 C161.581,737.666 161.606,738.541 161.606,738.747 C161.606,740.497 160.654,741.32 158.62,741.32 z M148.4,743.095 L150.254,742.992 C150.228,742.864 150.228,742.761 150.228,742.684 C150.228,741.294 151.309,737.769 152.571,735.067 L151.335,734.45 C150.666,736.045 150.048,737.692 149.842,738.515 C149.688,739.133 149.688,739.133 149.559,739.493 L149.482,739.467 C149.482,738.49 149.456,738.284 149.456,738.052 C149.455,737.014 149.397,735.977 149.379,734.939 C149.379,732.186 149.688,729.124 150.28,726.345 C150.666,724.466 151.026,723.103 151.335,722.382 L149.353,722.073 C149.301,722.485 149.276,722.665 149.095,723.463 C148.092,728.352 147.731,731.285 147.731,734.759 C147.731,736.869 147.911,739.287 148.169,741.14 C148.4,742.658 148.4,742.658 148.4,743.095 z M212.17,749.351 C213.028,749.351 213.839,749.236 214.603,749.004 C215.367,748.772 216.032,748.425 216.598,747.962 C217.164,747.499 217.615,746.92 217.949,746.225 C218.284,745.53 218.451,744.728 218.451,743.819 C218.451,742.721 218.181,741.769 217.641,740.963 C217.1,740.157 216.272,739.634 215.156,739.394 L215.156,739.342 C215.877,739.016 216.478,738.536 216.958,737.901 C217.439,737.266 217.679,736.537 217.679,735.714 C217.679,734.874 217.538,734.145 217.254,733.527 C216.971,732.909 216.581,732.403 216.083,732.009 C215.585,731.614 214.998,731.318 214.32,731.121 C213.642,730.924 212.908,730.825 212.119,730.825 C211.209,730.825 210.407,730.971 209.712,731.263 C209.017,731.554 208.438,731.957 207.974,732.472 C207.511,732.987 207.155,733.604 206.906,734.325 C206.657,735.045 206.516,735.843 206.481,736.718 L208.669,736.718 C208.669,736.186 208.738,735.68 208.875,735.199 C209.013,734.719 209.223,734.299 209.506,733.939 C209.789,733.578 210.149,733.291 210.587,733.077 C211.025,732.862 211.535,732.755 212.119,732.755 C213.045,732.755 213.818,733 214.436,733.488 C215.053,733.977 215.362,734.711 215.362,735.688 C215.362,736.169 215.268,736.597 215.079,736.975 C214.89,737.352 214.637,737.665 214.32,737.914 C214.002,738.163 213.633,738.351 213.213,738.48 C212.792,738.609 212.35,738.673 211.887,738.673 L211.166,738.673 C211.098,738.673 211.02,738.665 210.935,738.647 L210.935,740.5 C211.347,740.449 211.784,740.423 212.247,740.423 C212.797,740.423 213.307,740.496 213.779,740.641 C214.251,740.787 214.659,741.01 215.002,741.311 C215.345,741.611 215.62,741.979 215.826,742.417 C216.032,742.854 216.135,743.356 216.135,743.922 C216.135,744.471 216.027,744.964 215.813,745.402 C215.598,745.839 215.311,746.208 214.95,746.508 C214.59,746.808 214.17,747.04 213.689,747.203 C213.209,747.366 212.702,747.447 212.17,747.447 C210.917,747.447 209.965,747.074 209.313,746.328 C208.661,745.582 208.318,744.617 208.283,743.433 L206.095,743.433 C206.078,744.377 206.211,745.217 206.494,745.955 C206.777,746.693 207.185,747.314 207.717,747.82 C208.249,748.326 208.892,748.708 209.648,748.965 C210.403,749.223 211.244,749.351 212.17,749.351 z M232.056,753.82 C233.936,753.099 235.068,752.507 236.124,751.735 C238.338,750.063 239.573,747.696 239.573,745.02 C239.573,743.888 239.393,743.064 238.955,741.984 L238.955,736.889 C241.511,736.843 244.077,736.747 246.627,736.966 L246.627,735.139 C245.777,735.242 243.795,735.294 238.93,735.319 C238.917,734.15 238.928,732.982 239.058,731.82 L237.128,731.82 C237.205,732.36 237.231,732.643 237.231,733.312 L237.282,735.345 C235.532,735.396 233.524,735.448 231.053,735.551 C226.908,735.705 226.908,735.705 226.161,735.705 C225.775,735.705 225.595,735.705 225.132,735.68 L225.209,737.558 C226.934,737.275 232.134,737.018 237.308,736.915 C237.308,737.892 237.308,737.892 237.308,738.253 C237.308,738.561 237.334,738.819 237.334,738.922 C237.334,739.874 237.334,739.977 237.359,740.337 C236.69,739.591 235.609,739.179 234.373,739.179 C231.748,739.179 229.817,740.98 229.817,743.424 C229.817,745.792 231.567,747.49 234.039,747.49 C235.403,747.49 236.51,747.027 237.282,746.1 C237.591,745.74 237.746,745.457 237.977,744.84 C237.874,747.181 236.973,748.854 235.094,750.269 C234.064,751.041 232.932,751.555 230.924,752.199 C231.464,752.765 231.619,752.996 232.056,753.82 z M255.902,734.605 C257.73,734.605 258.914,732.881 260.175,728.378 C259.455,727.812 259.223,727.58 258.657,726.911 C258.322,728.661 257.91,730.025 257.318,731.311 C256.932,732.161 256.494,732.598 256.031,732.598 C255.053,732.598 253.997,730.823 253.431,728.198 C253.045,726.551 252.762,723.026 252.762,720.196 C252.762,718.781 252.813,717.931 252.942,717.134 L250.78,717.108 C251.032,721.66 250.817,726.305 252.247,730.694 C253.122,733.164 254.461,734.605 255.902,734.605 z M269.16,731.98 L270.987,731.234 C270.524,728.352 270.035,726.526 269.057,724.364 C268.104,722.177 267.049,720.479 265.375,718.498 L263.805,719.295 C266.817,722.795 268.696,727.195 269.16,731.98 z M128.132,728.165 C127.6,728.165 127.115,728.058 126.678,727.844 C126.24,727.629 125.863,727.342 125.545,726.982 C125.228,726.621 124.979,726.21 124.799,725.747 C124.618,725.283 124.528,724.803 124.528,724.306 C124.528,723.74 124.593,723.199 124.721,722.685 C124.85,722.17 125.056,721.711 125.339,721.308 C125.651,720.89 126.016,720.636 126.446,720.343 C126.901,720.103 127.454,719.983 128.106,719.983 C128.724,719.983 129.265,720.094 129.728,720.317 C130.192,720.54 130.582,720.845 130.9,721.231 C131.217,721.617 131.457,722.058 131.62,722.556 C131.783,723.053 131.865,723.585 131.865,724.151 C131.865,724.683 131.779,725.193 131.607,725.682 C131.436,726.171 131.187,726.6 130.861,726.969 C130.535,727.338 130.14,727.629 129.677,727.844 C129.213,728.058 128.699,728.165 128.132,728.165 z M158.594,742.838 C160.731,742.838 162.43,742.066 162.945,740.857 C163.177,740.316 163.28,739.75 163.28,738.979 C163.28,738.644 163.28,738.515 163.228,738.258 C163.357,738.31 163.357,738.31 163.64,738.438 C163.691,738.438 163.691,738.438 164.206,738.747 C165.802,739.699 166.935,740.522 167.579,741.243 L168.351,739.467 C168.119,739.339 168.068,739.287 167.656,738.979 C166.369,738.026 164.618,737.074 163.202,736.56 C163.099,734.939 163.074,734.115 163.022,731.105 C164.464,730.976 165.699,730.796 166.832,730.565 C167.218,730.487 167.295,730.462 167.553,730.436 L167.501,728.738 C166.626,729.098 164.953,729.407 162.996,729.613 C162.996,727.863 162.996,727.786 162.996,727.606 C162.996,726.859 163.022,726.345 163.048,725.47 C164.078,725.367 164.876,725.264 165.802,725.084 C166.935,724.904 166.935,724.904 167.27,724.852 L167.218,723.18 C165.107,723.797 161.889,724.158 158.594,724.158 C156.638,724.158 155.196,724.055 154.192,723.797 L154.115,725.496 L154.433,725.496 C155.872,725.568 157.308,725.629 158.749,725.65 C159.727,725.65 160.371,725.624 161.375,725.573 C161.298,726.953 161.324,728.335 161.349,729.715 C160.113,729.767 159.109,729.793 158.26,729.793 C156.329,729.793 154.99,729.69 153.987,729.432 L153.935,731.157 C154.495,731.16 154.247,731.147 154.682,731.182 C156.561,731.285 157.179,731.311 158.337,731.311 C159.444,731.311 160.036,731.285 161.4,731.234 C161.452,734.141 161.529,735.788 161.581,736.148 C160.757,735.839 159.882,735.685 158.852,735.685 C155.891,735.685 153.858,737.152 153.858,739.287 C153.858,741.449 155.711,742.838 158.594,742.838 z M183.967,721.925 C182.397,721.925 181.315,720.87 181.315,719.378 C181.315,717.834 182.551,716.676 184.173,716.676 C184.868,716.676 185.408,716.804 185.898,717.087 C186.644,717.499 186.979,718.039 186.979,718.889 C186.979,720.69 185.743,721.925 183.967,721.925 z M212.299,718.372 L214.487,718.372 L214.487,700.129 L212.814,700.129 C212.694,700.815 212.471,701.381 212.145,701.827 C211.818,702.273 211.419,702.624 210.947,702.882 C210.476,703.139 209.948,703.315 209.364,703.409 C208.781,703.504 208.18,703.551 207.562,703.551 L207.562,705.3 L212.299,705.3 z M181.83,729.85 C183.709,729.129 184.842,728.538 185.898,727.766 C188.111,726.093 189.347,723.726 189.347,721.05 C189.347,719.918 189.167,719.094 188.729,718.014 L188.729,712.919 C191.284,712.873 193.851,712.777 196.4,712.996 L196.4,711.169 C195.551,711.272 193.569,711.324 188.704,711.35 C188.691,710.181 188.702,709.013 188.832,707.85 L186.902,707.85 C186.979,708.391 187.004,708.674 187.004,709.343 L187.056,711.375 C185.306,711.427 183.298,711.478 180.826,711.581 C176.682,711.736 176.682,711.736 175.935,711.736 C175.549,711.736 175.369,711.736 174.906,711.71 L174.983,713.588 C176.708,713.305 181.908,713.048 187.082,712.945 C187.082,713.923 187.082,713.923 187.082,714.283 C187.082,714.592 187.107,714.849 187.107,714.952 C187.107,715.904 187.107,716.007 187.133,716.367 C186.464,715.621 185.383,715.209 184.147,715.209 C181.521,715.209 179.591,717.01 179.591,719.455 C179.591,721.822 181.341,723.52 183.812,723.52 C185.177,723.52 186.284,723.057 187.056,722.131 C187.365,721.77 187.519,721.487 187.751,720.87 C187.648,723.211 186.747,724.884 184.868,726.299 C183.838,727.071 182.706,727.586 180.698,728.229 C181.238,728.795 181.393,729.026 181.83,729.85 z M235.557,710.283 L237.051,710.283 L237.051,709.023 L240.912,709.023 C241.684,709.023 242.199,709.048 242.74,709.1 C242.688,708.74 242.662,708.354 242.662,707.582 L242.662,705.266 C242.662,704.545 242.688,704.159 242.74,703.748 C242.379,703.799 241.916,703.825 240.912,703.825 L237.385,703.825 C236.407,703.825 235.892,703.799 235.557,703.748 C235.609,704.262 235.635,704.623 235.635,705.317 L235.635,708.714 C235.635,709.409 235.609,709.769 235.557,710.283 z M237.051,707.787 L237.051,705.034 L241.247,705.034 L241.247,707.787 z M223.639,713.603 L224.514,715.275 C225.846,714.163 227.174,713.057 228.401,711.827 C229.07,712.831 229.714,713.474 230.589,713.989 C232.185,714.915 233.704,715.146 237.849,715.146 C241.169,715.146 244.413,715.095 247.244,714.992 C247.399,714.143 247.45,713.989 247.837,713.139 C245.134,713.474 241.736,713.628 236.51,713.628 C233.395,713.628 231.851,713.268 230.486,712.213 C229.894,711.75 229.611,711.364 229.251,710.515 L229.251,705.472 C229.251,704.134 229.276,703.542 229.379,702.744 C228.736,702.847 228.195,702.873 227.397,702.873 L226.213,702.873 C225.235,702.873 224.771,702.847 224.205,702.744 L224.205,704.443 C224.849,704.34 225.235,704.314 226.11,704.314 L227.655,704.314 L227.655,710.515 C226.084,712.085 224.797,713.062 223.639,713.603 z M153.317,701.026 C152.709,700.892 153.044,701.026 152.388,700.472 L154.802,699.268 L154.604,699.739 C154.218,700.588 153.781,701.026 153.317,701.026 z M235.274,700.815 L235.274,696.553 L238.068,697.684 C238.095,699.185 238.08,698.141 238.08,700.815 z z M239.522,700.815 L239.522,698.366 L243.1,700.059 L243.1,700.815 z M198.217,889.384 C185.652,889.269 172.981,887.186 161.364,882.276 C164.518,879.569 163.212,880.8 165.365,878.67 C166.008,877.975 166.034,877.924 166.497,877.589 L164.721,876.329 C164,877.538 162.198,879.339 159.804,881.192 L159.44,881.463 C142.022,874.157 126.943,861.981 116.122,846.492 C114.164,843.69 112.496,840.695 110.683,837.796 L110.64,837.708 C110.878,837.671 110.751,837.687 111.023,837.662 L110.791,835.552 C110.035,835.813 110.389,835.717 109.735,835.862 C105.565,827.354 107.158,831.087 104.664,824.79 L104.768,824.718 C106.242,823.717 107.778,822.826 109.401,822.095 L109.273,820.397 C107.321,820.875 105.297,820.896 103.299,820.928 C100.117,810.987 98.29,800.456 98.22,789.999 C98.204,787.68 98.543,785.291 98.615,782.959 C98.667,781.389 98.667,781.389 98.77,780.746 L98.59,780.735 C99.017,773.775 100.59,766.98 102.524,760.309 C102.538,761.011 102.482,761.708 102.374,762.4 L104.613,762.4 C104.51,761.705 104.484,761.139 104.484,759.672 L104.484,754.877 C106.015,750.671 106.068,750.229 108.606,745.344 C108.725,745.115 109.007,745.017 109.194,744.84 C109.641,744.415 110.07,743.973 110.508,743.539 C111.152,742.845 111.177,742.793 111.641,742.459 L110.528,741.669 C114.749,734.388 112.711,737.601 116.508,731.944 C118.293,729.406 120.341,727.063 122.257,724.622 C122.334,725.688 122.254,725.068 122.585,726.467 C122.834,727.222 123.203,727.865 123.692,728.397 C124.181,728.929 124.786,729.345 125.506,729.645 C126.227,729.945 127.051,730.095 127.978,730.095 C128.87,730.095 129.694,729.868 130.449,729.413 C131.204,728.959 131.788,728.345 132.199,727.573 L132.251,727.625 C132.182,730.009 131.813,731.78 131.144,732.938 C130.475,734.096 129.471,734.675 128.132,734.675 C127.257,734.675 126.502,734.435 125.867,733.955 C125.232,733.474 124.871,732.788 124.786,731.896 L122.598,731.896 C122.735,733.474 123.31,734.649 124.322,735.421 C125.335,736.193 126.605,736.579 128.132,736.579 C130.346,736.579 131.955,735.734 132.959,734.045 C133.963,732.355 134.465,729.932 134.465,726.776 C134.465,725.043 134.297,723.615 133.963,722.492 C133.628,721.368 133.178,720.48 132.611,719.828 C132.045,719.177 131.384,718.718 130.629,718.452 C129.126,718.068 129.86,718.185 128.433,718.071 C134.845,711.294 142.677,706.1 150.678,701.416 L150.694,701.445 C153.929,705.161 155.705,701.587 156.991,698.366 L157.027,698.247 C160.685,696.572 157.992,697.77 165.233,694.956 L165.342,695.214 C166.353,699.212 166.049,697.468 166.446,700.408 L168.274,699.662 C167.71,696.551 168.095,698.325 166.992,694.372 C173.018,692.197 179.314,691.069 185.645,690.266 C186.261,690.402 186.996,690.433 187.629,690.344 C188.249,690.256 188.828,689.966 189.448,689.881 C193.044,689.384 194.308,689.482 198.217,689.384 C204.349,689.539 206.376,689.46 213.454,690.536 C217.575,691.1 221.602,692.125 225.604,693.229 L224.617,694.047 C226.367,695.771 227.037,696.595 228.53,698.833 L229.843,697.675 C228.749,696.138 227.522,694.709 226.176,693.387 C228.747,694.061 231.267,694.929 233.73,695.927 L233.73,700.815 L233.472,700.815 C232.494,700.815 231.979,700.789 231.49,700.712 C231.567,701.329 231.593,701.792 231.593,702.744 L231.593,709.563 C231.593,710.566 231.567,711.261 231.464,711.904 L233.266,711.904 C233.163,711.313 233.138,710.592 233.138,709.563 L233.138,702.127 L245.005,702.127 L245.005,710 C245.005,710.335 244.773,710.438 244.104,710.438 C243.332,710.438 242.559,710.386 241.581,710.232 C241.761,710.798 241.864,711.158 241.942,711.75 C242.868,711.801 243.28,711.801 243.769,711.801 C246.086,711.801 246.549,711.544 246.549,710.206 L246.549,702.744 C246.555,702.048 246.544,702.32 246.564,701.929 C263.198,710.885 276.581,724.888 285.793,741.263 C284.289,740.879 285.07,741.012 283.445,740.883 C282.57,740.883 281.763,741.028 281.025,741.32 C280.287,741.612 279.652,742.019 279.12,742.542 C278.588,743.065 278.176,743.692 277.885,744.421 C277.593,745.15 277.447,745.951 277.447,746.826 C277.447,747.718 277.571,748.542 277.82,749.297 C278.069,750.051 278.438,750.694 278.927,751.226 C279.416,751.758 280.021,752.174 280.742,752.474 C281.463,752.774 282.286,752.925 283.213,752.925 C284.106,752.925 284.929,752.697 285.684,752.243 C286.44,751.788 287.023,751.175 287.435,750.403 L287.486,750.454 C287.418,752.839 287.049,754.61 286.379,755.768 C285.71,756.926 284.706,757.505 283.368,757.505 C282.492,757.505 281.737,757.264 281.102,756.784 C280.467,756.304 280.107,755.618 280.021,754.726 L277.833,754.726 C277.97,756.304 278.545,757.479 279.558,758.251 C280.57,759.023 281.84,759.409 283.368,759.409 C285.581,759.409 287.19,758.564 288.194,756.874 C289.198,755.185 289.7,752.762 289.7,749.605 L289.688,749.118 C298.766,769.566 300.654,792.72 295.089,814.394 C292.929,822.806 291.738,824.801 288.375,832.752 L288.325,832.844 L278.58,832.844 L278.58,848.911 L278.368,849.225 C271.82,857.615 264.204,865.278 255.367,871.261 C255.423,870.155 255.38,870.618 255.465,869.871 L253.328,869.871 C253.405,870.488 253.431,870.926 253.431,872.032 L253.431,872.572 C244.333,879.053 233.908,883.239 223.214,886.236 C214.532,888.463 212.287,888.349 203.364,889.253 z" fill="#000000"/>
    <text transform="matrix(1, -0, 0, 1, 152.128, 792.72)">
      <tspan x="-6.091" y="-80.347" font-family="HelveticaNeue" font-size="22" fill="#0A9715">D</tspan>
      <tspan x="-6.091" y="-53.347" font-family="HelveticaNeue" font-size="22" fill="#0A9715">4</tspan>
      <tspan x="-6.091" y="-26.347" font-family="HelveticaNeue" font-size="22" fill="#0A9715">7</tspan>
      <tspan x="-6.091" y="0.653" font-family="HelveticaNeue" font-size="22" fill="#0A9715">A</tspan>
      <tspan x="-6.091" y="27.653" font-family="HelveticaNeue" font-size="22" fill="#0A9715">1</tspan>
      <tspan x="-6.091" y="54.653" font-family="HelveticaNeue" font-size="22" fill="#0A9715">9</tspan>
      <tspan x="-6.091" y="81.653" font-family="HelveticaNeue" font-size="22" fill="#0A9715">F</tspan>
    </text>
    <path d="M883.05,794.127 C875.62,795.512 867.932,787.704 865.879,776.687 C863.825,765.669 868.184,755.616 875.614,754.231 C883.044,752.846 890.732,760.654 892.785,771.672 C894.839,782.689 890.48,792.743 883.05,794.127 z" fill="#6C6033"/>
    <path d="M745.299,765.432 C742.63,764.238 742.946,757.721 746.006,750.875 C749.066,744.029 753.711,739.446 756.38,740.639 C759.05,741.832 758.733,748.349 755.674,755.196 C752.614,762.042 747.969,766.625 745.299,765.432 z" fill="#6C6033"/>
    <path d="M899.312,763.857 C896.334,764.983 891.766,760.2 889.11,753.173 C886.454,746.146 886.715,739.537 889.694,738.411 C892.672,737.285 897.24,742.069 899.896,749.096 C902.552,756.122 902.291,762.731 899.312,763.857 z" fill="#6C6033"/>
    <path d="M198.235,676.524 C135.906,676.524 85.36,727.039 85.36,789.368 C85.36,851.697 135.906,902.243 198.235,902.243 C260.564,902.243 311.079,851.697 311.079,789.368 C311.079,727.039 260.564,676.524 198.235,676.524 z M198.235,692.243 C251.885,692.243 295.36,735.717 295.36,789.368 C295.36,843.018 251.885,886.524 198.235,886.524 C144.584,886.524 101.079,843.018 101.079,789.368 C101.079,735.717 144.584,692.243 198.235,692.243 z" fill="#018221"/>
    <path d="M790.112,835.776 L810.257,835.776 C814.952,835.776 818.94,838.857 818.757,844.276 L814.272,858.463 C813.805,866.399 813.494,874.801 809.759,879.625 L803.379,886.471 C794.199,882.581 790.153,867.799 787.197,858.93 L781.612,844.276 C779.728,836.678 785.417,835.776 790.112,835.776 z" fill="#6C6033"/>
    <path d="M858.884,835.776 L838.738,835.776 C834.044,835.776 830.056,838.857 830.238,844.276 L834.724,858.463 C835.191,866.399 835.502,874.801 839.237,879.625 L845.616,886.471 C854.797,882.581 858.843,867.799 861.799,858.93 L867.384,844.276 C869.268,836.678 863.578,835.776 858.884,835.776 z" fill="#6C6033"/>
  </g>
  <g id="Layer_2">
    <path d="M295.219,789.471 C295.219,843.043 251.791,886.471 198.219,886.471 C144.648,886.471 101.219,843.043 101.219,789.471 C101.219,735.9 144.648,692.471 198.219,692.471 C251.791,692.471 295.219,735.9 295.219,789.471 z" fill="url(#Gradient_2)"/>
  </g>
  <g id="Layer_3">
    <text transform="matrix(1, 0, 0, 1, 247.783, 789.384)">
      <tspan x="-18.273" y="-50" font-family="PingFangSC-Regular" font-size="29" fill="#018221"></tspan>
      <tspan x="-18.273" y="-9" font-family="PingFangSC-Regular" font-size="29" fill="#018221"></tspan>
      <tspan x="-18.273" y="32" font-family="PingFangSC-Regular" font-size="29" fill="#018221"></tspan>
    </text>
  </g>
</svg>
