<?xml version="1.0" encoding="UTF-8" standalone="no"?>
<!DOCTYPE svg PUBLIC "-//W3C//DTD SVG 1.1//EN" "http://www.w3.org/Graphics/SVG/1.1/DTD/svg11.dtd">
<svg width="100%" height="100%" viewBox="0 0 944 704" version="1.1" xmlns="http://www.w3.org/2000/svg" xmlns:xlink="http://www.w3.org/1999/xlink" xml:space="preserve" xmlns:serif="http://www.serif.com/" style="fill-rule:evenodd;clip-rule:evenodd;stroke-linecap:round;stroke-linejoin:round;stroke-miterlimit:1.5;">
    <rect id="Background" x="0" y="0" width="944" height="704" style="fill:white;"/>
    <g id="Background1" serif:id="Background">
        <g transform="matrix(0.986314,0,0,0.986314,494.65,-18.8179)">
            <path d="M228.945,566.398L225.992,566.249L231.898,566.249L228.945,566.398Z"/>
        </g>
        <g transform="matrix(0.986314,0,0,0.986314,242.853,-421.938)">
            <path d="M189.71,487.549L185,495.097C186.335,492.427 187.906,489.895 189.71,487.549Z"/>
        </g>
        <g transform="matrix(1.14149,0,0,1.14149,-69.5572,-16.5541)">
            <path d="M176.669,465.194L429.967,58.939C438.784,47.188 452.846,39.606 468.665,39.606C486.111,39.606 501.42,48.828 509.979,62.658L510.37,62.657L762.186,466.206L762.144,466.381C765.962,472.755 768.915,483.591 768.915,483.591L769.52,491.278C769.52,515.44 746.355,538.578 728.208,539.163C726.718,539.4 717.55,539.681 717.55,539.681L220.203,539.364C219.431,539.4 218.656,539.419 217.875,539.419C217.768,539.419 217.66,539.419 217.553,539.418L217.545,539.418L217.446,539.417C217.446,539.417 189.69,539.824 174.505,512.701C163.992,493.921 176.418,465.6 176.418,465.6L176.448,465.551L176.471,465.514C176.536,465.409 176.601,465.303 176.666,465.198C176.666,465.198 176.668,465.196 176.668,465.196L176.669,465.194Z" style="fill:none;stroke:black;stroke-width:43.8px;"/>
        </g>
    </g>
    <g id="Foreground">
        <g transform="matrix(1,0,0,1,3.83014,69.4369)">
            <rect x="318" y="267" width="290" height="33" style="fill-rule:nonzero;"/>
            <rect x="318" y="378" width="290" height="33" style="fill-rule:nonzero;"/>
        </g>
        <g transform="matrix(1,0,0,1,-4.45632,0)">
            <g transform="matrix(1,0,0,1,0,71.2606)">
                <path d="M375.934,247L376,247L376,427L358,427L358,247.089L357.987,247.089L358,247.067L358,247L358.04,247L366.987,232.089L375.934,247Z" style="fill-rule:nonzero;"/>
            </g>
            <g transform="matrix(1,0,0,1,10.1483,71.2606)">
                <path d="M417.945,247L417.998,247L417.998,427L399.998,427L399.998,247L400.051,247L408.998,232.089L417.945,247Z" style="fill-rule:nonzero;"/>
            </g>
            <g transform="matrix(1,0,0,1,20.4889,71.2606)">
                <path d="M459.751,247L459.804,247L459.804,427L441.804,427L441.804,247L441.857,247L450.804,232.089L459.751,247Z" style="fill-rule:nonzero;"/>
            </g>
            <g transform="matrix(1,0,0,1,30.5065,71.2606)">
                <path d="M501.88,247L501.933,247L501.933,427L483.933,427L483.933,247L483.986,247L492.933,232.089L501.88,247Z" style="fill-rule:nonzero;"/>
            </g>
            <g transform="matrix(1,0,0,1,40.6338,71.2606)">
                <path d="M543.899,247L543.952,247L543.952,427L525.952,427L525.952,247L526.005,247L534.952,232.089L543.899,247Z" style="fill-rule:nonzero;"/>
            </g>
        </g>
    </g>
</svg>
