<?xml version="1.0" encoding="UTF-8"?>
<!DOCTYPE svg PUBLIC "-//W3C//DTD SVG 1.1//EN" "http://www.w3.org/Graphics/SVG/1.1/DTD/svg11.dtd">
<svg version="1.1" xmlns="http://www.w3.org/2000/svg" xmlns:xlink="http://www.w3.org/1999/xlink" x="0" y="0" width="944" height="704" viewBox="0, 0, 944, 704">
  <g id="Background">
    <rect x="0" y="0" width="944" height="704" fill="#FFFFFF"/>
  </g>
  <g id="Background">
    <path d="M502.762,64.563 L759.436,321.238 C776.425,338.228 774.854,367.344 755.926,386.272 L506.272,635.926 C487.344,654.854 458.228,656.426 441.238,639.437 L184.563,382.762 C167.574,365.772 169.146,336.656 188.074,317.728 L437.728,68.074 C456.656,49.146 485.772,47.574 502.762,64.563 z" fill="#ACACAC"/>
    <path d="M473.175,52.783 C484.386,52.739 494.643,56.89 502.762,64.564 L502.762,64.563 L759.437,321.238 C776.426,338.228 774.854,367.344 755.926,386.272 L506.272,635.926 C487.344,654.854 458.228,656.426 441.238,639.437 L184.563,382.762 C167.574,365.772 169.146,336.656 188.074,317.728 L437.728,68.074 C447.674,58.157 459.31,53.532 473.175,52.783 z M474.815,102.033 C462.705,101.842 451.995,106.53 443.365,114.776 L234.777,323.365 C218.962,339.18 217.648,363.507 231.844,377.702 L446.299,592.157 C460.493,606.352 484.821,605.038 500.635,589.224 L709.224,380.635 C725.038,364.82 726.352,340.493 712.157,326.298 L497.702,111.843 C492.937,107.218 486.838,103.766 480.229,102.661 C478.437,102.362 476.62,102.243 474.815,102.033 z" fill="#000000"/>
  </g>
  <g id="Foreground">
    <path d="M349,247 L367,247 L367,427 L349,427 z" fill="#000000"/>
    <path d="M433,247 L451,247 L451,427 L433,427 z" fill="#000000"/>
    <path d="M475,247 L493,247 L493,427 L475,427 z" fill="#000000"/>
    <path d="M517,247 L535,247 L535,427 L517,427 z" fill="#000000"/>
    <path d="M559,247 L577,247 L577,427 L559,427 z" fill="#000000"/>
    <path d="M391,247 L409,247 L409,427 L391,427 z" fill="#000000"/>
    <g>
      <path d="M318,267 L608,267 L608,300 L318,300 z" fill="#000000"/>
      <path d="M318,378 L608,378 L608,411 L318,411 z" fill="#000000"/>
    </g>
  </g>
</svg>
