<?xml version="1.0" encoding="UTF-8" standalone="no"?>
<!DOCTYPE svg PUBLIC "-//W3C//DTD SVG 1.1//EN" "http://www.w3.org/Graphics/SVG/1.1/DTD/svg11.dtd">
<svg width="100%" height="100%" viewBox="0 0 944 704" version="1.1" xmlns="http://www.w3.org/2000/svg" xmlns:xlink="http://www.w3.org/1999/xlink" xml:space="preserve" xmlns:serif="http://www.serif.com/" style="fill-rule:evenodd;clip-rule:evenodd;stroke-linejoin:round;stroke-miterlimit:1.41421;">
    <g id="Background" transform="matrix(1,0,0,1,183.786,94.2525)">
        <rect x="0" y="0" width="944" height="704" style="fill:white;"/>
    </g>
    <g id="Background1" serif:id="Background">
        <path d="M502.762,64.563L759.436,321.238C776.425,338.228 774.854,367.344 755.926,386.272L506.272,635.926C487.344,654.854 458.228,656.426 441.238,639.437L184.563,382.762C167.574,365.772 169.146,336.656 188.074,317.728L437.728,68.074C456.656,49.146 485.772,47.574 502.762,64.563Z" style="fill:rgb(172,172,172);fill-rule:nonzero;"/>
        <path d="M473.175,52.783C484.386,52.739 494.643,56.89 502.762,64.564L502.762,64.563L759.437,321.238C776.426,338.228 774.854,367.344 755.926,386.272L506.272,635.926C487.344,654.854 458.228,656.426 441.238,639.437L184.563,382.762C167.574,365.772 169.146,336.656 188.074,317.728L437.728,68.074C447.674,58.157 459.31,53.532 473.175,52.783ZM474.815,102.033C462.705,101.842 451.995,106.53 443.365,114.776L234.777,323.365C218.962,339.18 217.648,363.507 231.844,377.702L446.299,592.157C460.493,606.352 484.821,605.038 500.635,589.224L709.224,380.635C725.038,364.82 726.352,340.493 712.157,326.298L497.702,111.843C492.937,107.218 486.838,103.766 480.229,102.661C478.437,102.362 476.62,102.243 474.815,102.033Z" style="fill-rule:nonzero;"/>
    </g>
    <g id="Foreground">
        <g transform="matrix(1,0,0,1,9,7.17633)">
            <rect x="318" y="267" width="290" height="33" style="fill-rule:nonzero;"/>
            <rect x="318" y="378" width="290" height="33" style="fill-rule:nonzero;"/>
        </g>
        <path d="M375.934,247L376,247L376,427L358,427L358,247.089L357.987,247.089L358,247.067L358,247L358.04,247L366.987,232.089L375.934,247Z" style="fill-rule:nonzero;"/>
        <g transform="matrix(1,0,0,1,10.1483,0)">
            <path d="M417.945,247L417.998,247L417.998,427L399.998,427L399.998,247L400.051,247L408.998,232.089L417.945,247Z" style="fill-rule:nonzero;"/>
        </g>
        <g transform="matrix(1,0,0,1,20.4889,0)">
            <path d="M459.751,247L459.804,247L459.804,427L441.804,427L441.804,247L441.857,247L450.804,232.089L459.751,247Z" style="fill-rule:nonzero;"/>
        </g>
        <g transform="matrix(1,0,0,1,30.5065,0)">
            <path d="M501.88,247L501.933,247L501.933,427L483.933,427L483.933,247L483.986,247L492.933,232.089L501.88,247Z" style="fill-rule:nonzero;"/>
        </g>
        <g transform="matrix(1,0,0,1,40.6338,-2.84217e-14)">
            <path d="M543.899,247L543.952,247L543.952,427L525.952,427L525.952,247L526.005,247L534.952,232.089L543.899,247Z" style="fill-rule:nonzero;"/>
        </g>
    </g>
</svg>
