<?xml version="1.0" encoding="UTF-8" standalone="no"?>
<!DOCTYPE svg PUBLIC "-//W3C//DTD SVG 1.1//EN" "http://www.w3.org/Graphics/SVG/1.1/DTD/svg11.dtd">
<svg width="100%" height="100%" viewBox="0 0 944 704" version="1.1" xmlns="http://www.w3.org/2000/svg" xmlns:xlink="http://www.w3.org/1999/xlink" xml:space="preserve" xmlns:serif="http://www.serif.com/" style="fill-rule:evenodd;clip-rule:evenodd;stroke-linejoin:round;stroke-miterlimit:1.41421;">
    <g id="Background" transform="matrix(1,0,0,1,-4.73632,-2.71261)">
        <rect x="0" y="0" width="944" height="704" style="fill:white;"/>
    </g>
    <g id="Circle">
        <g transform="matrix(2.58655,0,0,2.58655,-747.774,-557.345)">
            <path d="M584,351.321C584,413.552 533.553,464 471.322,464C409.091,464 358.642,413.552 358.642,351.321C358.612,289.069 409.07,238.588 471.322,238.588C533.574,238.588 584.03,289.069 584,351.321Z" style="fill:rgb(224,223,225);fill-rule:nonzero;"/>
        </g>
        <g transform="matrix(2.58655,0,0,2.58655,-747.774,-557.345)">
            <path d="M471.332,238.647C409.101,238.647 358.644,289.104 358.644,351.335C358.644,413.565 409.101,463.991 471.332,463.991C533.562,463.991 583.988,413.565 583.988,351.335C583.988,289.104 533.562,238.647 471.332,238.647ZM471.332,253.991C525.081,253.991 568.644,297.585 568.644,351.335C568.644,405.084 525.081,448.647 471.332,448.647C417.583,448.647 373.988,405.084 373.988,351.335C373.988,297.585 417.583,253.991 471.332,253.991Z" style="fill:rgb(108,83,83);fill-rule:nonzero;"/>
        </g>
    </g>
    <g id="Lock">
        <g transform="matrix(2.58655,0,0,2.58655,-747.774,-557.345)">
            <path d="M531.872,392.017C530.491,392.017 529.372,390.898 529.372,389.517C529.372,388.136 530.491,387.017 531.872,387.017C533.253,387.017 534.372,388.136 534.372,389.517C534.372,390.898 533.253,392.017 531.872,392.017Z" style="fill:rgb(108,83,83);fill-rule:nonzero;"/>
        </g>
        <g transform="matrix(2.58655,0,0,2.58655,-747.774,-557.345)">
            <g transform="matrix(1,0,0,1,0.947693,1.81433)">
                <g>
                    <path d="M471.438,346.83C494.634,346.83 513.438,365.634 513.438,388.83C513.438,412.026 494.634,430.83 471.438,430.83C448.242,430.83 429.438,412.026 429.438,388.83C429.438,365.634 448.242,346.83 471.438,346.83ZM477.28,355.29L467.205,355.29L465.791,362.681L465.791,369.479L460.135,369.479L460.135,377.464L465.791,377.464L469.852,382.238L461.184,389.86L465.791,395.813L465.791,401.556L460.622,406.104L465.645,411.813L465.791,411.685L465.791,422.37L478.463,422.37L478.463,410.844L482.742,407.533L478.463,402.004L478.463,399.039L474.769,394.838L478.463,391.59L478.463,378.953L482.742,375.188L478.463,370.325L478.463,363.594L478.427,363.599L477.28,355.29Z" style="fill:rgb(108,83,83);"/>
                </g>
            </g>
            <g transform="matrix(1,0,0,1,0.97813,1.94536)">
                <path d="M465.73,377.409L465.736,377.57L469.792,382.184L461.123,389.806L465.73,395.758L465.73,401.501L460.561,406.049L465.585,411.758L465.73,411.63L465.73,418.436C455.742,416.154 449.986,406.49 449.5,396.862C449.592,390.125 452.503,383.837 457.688,379.5C458.643,378.701 459.752,378.106 460.784,377.409L465.73,377.409ZM465.23,377.909L460.934,377.909C460.417,378.249 460.727,378.048 460,378.507C458.962,379.158 458.516,379.459 458.009,379.884C452.969,384.099 450.091,390.233 449.999,396.837C450.55,406.139 455.884,415.166 465.23,417.778L465.23,412.112L465.21,412.088L460.186,406.379L459.856,406.004L460.231,405.673L465.23,401.275L465.23,395.929L460.728,390.112L460.441,389.74L460.793,389.43L469.086,382.138L465.699,378.286C465.699,378.286 465.589,378.084 465.536,377.988C465.519,377.958 465.488,377.937 465.453,377.933C465.372,377.924 465.23,377.909 465.23,377.909Z" style="fill:rgb(108,83,83);fill-rule:nonzero;stroke:rgb(224,223,225);stroke-width:0.39px;"/>
            </g>
            <g transform="matrix(1,0,0,1,1.37323,1.83527)">
                <g>
                    <path d="M481.203,376.435C489.593,379.82 494.062,388.179 494.5,396.862C494.354,405.068 490.014,412.7 482.725,416.646C480.055,418.092 480.024,418.079 478.403,418.409L478.403,410.789L482.682,407.478L478.403,401.949L478.403,398.984L474.709,394.783L478.403,391.535L478.403,378.898L481.203,376.435ZM481.291,377.023L478.903,379.124L478.903,391.761L478.733,391.91L475.415,394.828L478.779,398.654L478.903,398.795L478.903,401.778L483.077,407.172L483.383,407.567L482.988,407.873L478.903,411.035L478.903,417.795C478.996,417.776 478.938,417.788 479.076,417.757C479.293,417.708 479.465,417.663 479.629,417.61C480.176,417.436 480.662,417.195 482.487,416.207C489.508,412.406 493.855,405.009 494.001,396.887C493.564,388.397 489.183,380.584 481.291,377.023Z" style="fill:rgb(108,83,83);fill-rule:nonzero;stroke:rgb(224,223,225);stroke-width:0.39px;"/>
                </g>
            </g>
        </g>
    </g>
</svg>
