<?xml version="1.0" encoding="UTF-8"?>
<!DOCTYPE svg PUBLIC "-//W3C//DTD SVG 1.1//EN" "http://www.w3.org/Graphics/SVG/1.1/DTD/svg11.dtd">
<svg version="1.1" xmlns="http://www.w3.org/2000/svg" xmlns:xlink="http://www.w3.org/1999/xlink" x="0" y="0" width="944" height="704" viewBox="0, 0, 944, 704">
  <g id="Background">
    <rect x="0" y="0" width="944" height="704" fill="#FFFFFF"/>
  </g>
  <g id="Background">
    <path d="M584.678,351.346 C584.678,413.577 534.232,464.025 472.001,464.025 C409.77,464.025 359.321,413.577 359.321,351.346 C359.291,289.094 409.749,238.613 472.001,238.613 C534.253,238.613 584.709,289.094 584.678,351.346 z" fill="#E1E0A6"/>
    <path d="M471.332,238.647 C409.101,238.647 358.645,289.104 358.645,351.335 C358.645,413.565 409.101,463.991 471.332,463.991 C533.563,463.991 583.988,413.565 583.988,351.335 C583.988,289.104 533.563,238.647 471.332,238.647 z M471.332,253.991 C525.081,253.991 568.645,297.585 568.645,351.335 C568.645,405.084 525.081,448.647 471.332,448.647 C417.583,448.647 373.988,405.084 373.988,351.335 C373.988,297.585 417.583,253.991 471.332,253.991 z" fill="#48626C"/>
  </g>
  <g id="Layer_1">
    <path d="M427.167,285.803 L449.885,285.803 C450.918,285.803 451.756,286.405 451.756,287.149 L451.756,310.917 C451.756,311.66 450.918,312.263 449.885,312.263 L427.167,312.263 C426.134,312.263 425.296,311.66 425.296,310.917 L425.296,287.149 C425.296,286.405 426.134,285.803 427.167,285.803 z" fill="#48626C"/>
    <path d="M492.748,285.803 L515.466,285.803 C516.499,285.803 517.337,286.405 517.337,287.149 L517.337,310.917 C517.337,311.66 516.499,312.263 515.466,312.263 L492.748,312.263 C491.715,312.263 490.877,311.66 490.877,310.917 L490.877,287.149 C490.877,286.405 491.715,285.803 492.748,285.803 z" fill="#48626C"/>
    <path d="M459.958,285.803 L482.675,285.803 C483.709,285.803 484.547,286.405 484.547,287.149 L484.547,310.917 C484.547,311.66 483.709,312.263 482.675,312.263 L459.958,312.263 C458.924,312.263 458.087,311.66 458.087,310.917 L458.087,287.149 C458.087,286.405 458.924,285.803 459.958,285.803 z" fill="#48626C"/>
    <path d="M427.167,318.982 L449.885,318.982 C450.918,318.982 451.756,319.584 451.756,320.328 L451.756,344.096 C451.756,344.839 450.918,345.442 449.885,345.442 L427.167,345.442 C426.134,345.442 425.296,344.839 425.296,344.096 L425.296,320.328 C425.296,319.584 426.134,318.982 427.167,318.982 z" fill="#48626C"/>
    <path d="M492.748,318.982 L515.466,318.982 C516.499,318.982 517.337,319.584 517.337,320.328 L517.337,344.096 C517.337,344.839 516.499,345.442 515.466,345.442 L492.748,345.442 C491.715,345.442 490.877,344.839 490.877,344.096 L490.877,320.328 C490.877,319.584 491.715,318.982 492.748,318.982 z" fill="#48626C"/>
    <path d="M459.958,318.982 L482.675,318.982 C483.709,318.982 484.547,319.584 484.547,320.328 L484.547,344.096 C484.547,344.839 483.709,345.442 482.675,345.442 L459.958,345.442 C458.924,345.442 458.087,344.839 458.087,344.096 L458.087,320.328 C458.087,319.584 458.924,318.982 459.958,318.982 z" fill="#48626C"/>
    <path d="M427.167,352.535 L449.885,352.535 C450.918,352.535 451.756,353.138 451.756,353.881 L451.756,377.65 C451.756,378.393 450.918,378.996 449.885,378.996 L427.167,378.996 C426.134,378.996 425.296,378.393 425.296,377.65 L425.296,353.881 C425.296,353.138 426.134,352.535 427.167,352.535 z" fill="#48626C"/>
    <path d="M492.748,352.535 L515.466,352.535 C516.499,352.535 517.337,353.138 517.337,353.881 L517.337,377.65 C517.337,378.393 516.499,378.996 515.466,378.996 L492.748,378.996 C491.715,378.996 490.877,378.393 490.877,377.65 L490.877,353.881 C490.877,353.138 491.715,352.535 492.748,352.535 z" fill="#48626C"/>
    <path d="M459.958,352.535 L482.675,352.535 C483.709,352.535 484.547,353.138 484.547,353.881 L484.547,377.65 C484.547,378.393 483.709,378.996 482.675,378.996 L459.958,378.996 C458.924,378.996 458.087,378.393 458.087,377.65 L458.087,353.881 C458.087,353.138 458.924,352.535 459.958,352.535 z" fill="#48626C"/>
    <path d="M427.167,386.387 L449.885,386.387 C450.918,386.387 451.756,386.989 451.756,387.732 L451.756,411.501 C451.756,412.244 450.918,412.846 449.885,412.846 L427.167,412.846 C426.134,412.846 425.296,412.244 425.296,411.501 L425.296,387.732 C425.296,386.989 426.134,386.387 427.167,386.387 z" fill="#48626C"/>
    <path d="M492.748,386.387 L515.466,386.387 C516.499,386.387 517.337,386.989 517.337,387.732 L517.337,411.501 C517.337,412.244 516.499,412.846 515.466,412.846 L492.748,412.846 C491.715,412.846 490.877,412.244 490.877,411.501 L490.877,387.732 C490.877,386.989 491.715,386.387 492.748,386.387 z" fill="#48626C"/>
    <path d="M459.958,386.387 L482.675,386.387 C483.709,386.387 484.547,386.989 484.547,387.732 L484.547,411.501 C484.547,412.244 483.709,412.846 482.675,412.846 L459.958,412.846 C458.924,412.846 458.087,412.244 458.087,411.501 L458.087,387.732 C458.087,386.989 458.924,386.387 459.958,386.387 z" fill="#48626C"/>
    <text transform="matrix(1, 0, 0, 1, 438.526, 294.928)">
      <tspan x="-3.196" y="5.124" font-family="Futura-CondensedMedium" font-size="15.435" fill="#E0E086">1</tspan>
    </text>
    <text transform="matrix(1, 0, 0, 1, 438.526, 306.75)">
      <tspan x="-6.231" y="2.487" font-family="Futura-CondensedMedium" font-size="7.717" fill="#E0E086">A B C</tspan>
    </text>
    <text transform="matrix(1, 0, 0, 1, 472.35, 294.974)">
      <tspan x="-3.196" y="5.077" font-family="Futura-CondensedMedium" font-size="15.435" fill="#E0E086">2</tspan>
    </text>
    <text transform="matrix(1, 0, 0, 1, 504.107, 294.974)">
      <tspan x="-3.196" y="5.077" font-family="Futura-CondensedMedium" font-size="15.435" fill="#E0E086">3</tspan>
    </text>
    <text transform="matrix(1, 0, 0, 1, 438.526, 328.16)">
      <tspan x="-3.196" y="5.078" font-family="Futura-CondensedMedium" font-size="15.435" fill="#E0E086">4</tspan>
    </text>
    <text transform="matrix(1, 0, 0, 1, 472.113, 328.16)">
      <tspan x="-3.196" y="5.078" font-family="Futura-CondensedMedium" font-size="15.435" fill="#E0E086">5</tspan>
    </text>
    <text transform="matrix(1, 0, 0, 1, 504.107, 328.16)">
      <tspan x="-3.196" y="5.078" font-family="Futura-CondensedMedium" font-size="15.435" fill="#E0E086">6</tspan>
    </text>
    <text transform="matrix(1, 0, 0, 1, 472.35, 306.75)">
      <tspan x="-6.144" y="2.487" font-family="Futura-CondensedMedium" font-size="7.717" fill="#E0E086">D E F</tspan>
    </text>
    <text transform="matrix(1, 0, 0, 1, 504.107, 306.75)">
      <tspan x="-6.044" y="2.487" font-family="Futura-CondensedMedium" font-size="7.717" fill="#E0E086">G H I</tspan>
    </text>
    <text transform="matrix(1, 0, 0, 1, 438.526, 339.183)">
      <tspan x="-5.628" y="2.487" font-family="Futura-CondensedMedium" font-size="7.717" fill="#E0E086">J K L</tspan>
    </text>
    <text transform="matrix(1, 0, 0, 1, 471.317, 339.183)">
      <tspan x="-7.448" y="2.487" font-family="Futura-CondensedMedium" font-size="7.717" fill="#E0E086">M N O</tspan>
    </text>
    <text transform="matrix(1, 0, 0, 1, 504.007, 339.183)">
      <tspan x="-6.598" y="2.487" font-family="Futura-CondensedMedium" font-size="7.717" fill="#E0E086">P Q R</tspan>
    </text>
    <text transform="matrix(1, 0, 0, 1, 438.526, 372.763)">
      <tspan x="-6.084" y="2.487" font-family="Futura-CondensedMedium" font-size="7.717" fill="#E0E086">S T U</tspan>
    </text>
    <text transform="matrix(1, 0, 0, 1, 471.317, 372.763)">
      <tspan x="-6.76" y="2.487" font-family="Futura-CondensedMedium" font-size="7.717" fill="#E0E086">V W X</tspan>
    </text>
    <text transform="matrix(1, 0, 0, 1, 504.107, 372.763)">
      <tspan x="-3.746" y="2.487" font-family="Futura-CondensedMedium" font-size="7.717" fill="#E0E086">Y Z</tspan>
    </text>
    <text transform="matrix(1, 0, 0, 1, 471.317, 407.334)">
      <tspan x="-6.796" y="2.487" font-family="Futura-CondensedMedium" font-size="7.717" fill="#E0E086">ÄÖÜß</tspan>
    </text>
    <text transform="matrix(1, 0, 0, 1, 438.526, 361.394)">
      <tspan x="-3.196" y="5.077" font-family="Futura-CondensedMedium" font-size="15.435" fill="#E0E086">7</tspan>
    </text>
    <text transform="matrix(1, 0, 0, 1, 471.317, 361.394)">
      <tspan x="-3.196" y="5.077" font-family="Futura-CondensedMedium" font-size="15.435" fill="#E0E086">8</tspan>
    </text>
    <text transform="matrix(1, 0, 0, 1, 504.561, 361.394)">
      <tspan x="-3.196" y="5.077" font-family="Futura-CondensedMedium" font-size="15.435" fill="#E0E086">9</tspan>
    </text>
    <text transform="matrix(1, 0, 0, 1, 471.317, 394.646)">
      <tspan x="-3.196" y="5.077" font-family="Futura-CondensedMedium" font-size="15.435" fill="#E0E086">0</tspan>
    </text>
    <text transform="matrix(1, 0, 0, 1, 438.526, 404.938)">
      <tspan x="-6.848" y="12.052" font-family="Futura-CondensedMedium" font-size="33.075" fill="#E0E086">*</tspan>
    </text>
    <text transform="matrix(1, 0, 0, 1, 504.561, 394.646)">
      <tspan x="-3.196" y="5.077" font-family="Futura-CondensedMedium" font-size="15.435" fill="#E0E086">#</tspan>
    </text>
  </g>
</svg>
